<svg xmlns="http://www.w3.org/2000/svg" xmlns:xlink="http://www.w3.org/1999/xlink" width="50.89cm" height="34cm" viewBox="0 0 1442.43 963.64">
  <defs>
    <style>
      .cls-1, .cls-5 {
        fill: none;
      }

      .cls-2 {
        fill: url(#Degradado_sin_nombre_6);
      }

      .cls-3 {
        clip-path: url(#clip-path);
      }

      .cls-4 {
        fill: url(#linear-gradient);
      }

      .cls-5 {
        stroke-miterlimit: 10;
        stroke: url(#linear-gradient-2);
      }
    </style>
    <linearGradient id="Degradado_sin_nombre_6" data-name="Degradado sin nombre 6" x1="721.21" y1="963.64" x2="721.21" gradientUnits="userSpaceOnUse">
      <stop offset="0" stop-color="#60017c"/>
      <stop offset="0.08" stop-color="#5d077f"/>
      <stop offset="0.19" stop-color="#531887"/>
      <stop offset="0.31" stop-color="#443495"/>
      <stop offset="0.41" stop-color="#3550a2"/>
      <stop offset="0.5" stop-color="#343589"/>
      <stop offset="0.61" stop-color="#321e74"/>
      <stop offset="0.72" stop-color="#320d65"/>
      <stop offset="0.84" stop-color="#31035c"/>
      <stop offset="1" stop-color="#310059"/>
    </linearGradient>
    <clipPath id="clip-path">
      <rect class="cls-1" x="1720.74" y="426.89" width="1444.23" height="543.52"/>
    </clipPath>
    <linearGradient id="linear-gradient" x1="2459.92" y1="962.14" x2="2459.92" y2="426.29" gradientUnits="userSpaceOnUse">
      <stop offset="0" stop-color="#3550a2"/>
      <stop offset="1" stop-color="#481a88"/>
    </linearGradient>
    <linearGradient id="linear-gradient-2" x1="2459.94" y1="962.43" x2="2459.94" y2="428.16" gradientUnits="userSpaceOnUse">
      <stop offset="0" stop-color="#82cfd3"/>
      <stop offset="0.2" stop-color="#71b0c7" stop-opacity="0.79"/>
      <stop offset="0.76" stop-color="#455ca5" stop-opacity="0.23"/>
      <stop offset="1" stop-color="#333a98" stop-opacity="0"/>
    </linearGradient>
  </defs>
  <title>montaña 3</title>
  <g id="fondo">
    <rect class="cls-2" width="1442.43" height="963.64"/>
  </g>
  <g id="montaña_3" data-name="montaña 3">
    <g class="cls-3">
      <g>
        <path class="cls-4" d="M3560,877.67q-15.78-16.52-31.62-32.54l0-.58-.51,0q-9.55-9.67-19.07-19.15l0-1.11-1,.08q-5-5-10-9.95l0-.75-.65.06c-22.07-21.82-43.88-42.91-65-63.23-20.54-19.78-30.33-28.21-38.53-30.9l-.06-.49-.94.2c-5.94-1.63-11.23-.31-19.5,1.78-1.94.49-4.1,1-6.48,1.59a18,18,0,0,0-5.85.4l-.2-1.68a176.06,176.06,0,0,1,19-4.61l-.34-2.6c-3.49.63-7,1.42-10.42,2.27l-.1-.82a187.18,187.18,0,0,0-33.15,9.26c-8.57-2.1-15.7-7.26-26.32-15-1.72-1.25-3.54-2.58-5.47-4-4.17-3-7.88-5.86-11.15-8.39s-6.15-4.74-9-6.71l.7-.07-.15-2.62c-1.35.11-2.69.25-4,.38a37,37,0,0,0-14.12-5.66c1.08-.09,2.17-.2,3.25-.27l-.13-2.62c-3.93.27-7.86.66-11.78,1.14l-.08-2a266.33,266.33,0,0,0-34.46,4.43,32.06,32.06,0,0,0-9.11.33,31.43,31.43,0,0,0-9.05,3,28.52,28.52,0,0,0-7.48.16,30.94,30.94,0,0,0-7,1.93c-15.52-12.94-28.44-39.91-22.37-95.57,1.66-15.17,4.12-28.47,6.73-41.08l.83,0,.13-2.62-.41,0q1.06-5,2.12-10c1.24-5.74,2.44-11.35,3.54-16.92l1.66,0,0-2.63c-.4,0-.79,0-1.18,0,1.61-8.36,2.94-16.68,3.76-25.23,1-.08,2-.2,3-.25l-.09-2.63c-.92,0-1.81.16-2.72.22a177.49,177.49,0,0,0,.43-22.46c1.58-.31,3.15-.63,4.77-.85l-.26-2.61c-1.57.21-3.09.53-4.62.82a182.45,182.45,0,0,0-2.23-19.16c1.45-.48,2.9-1,4.4-1.39l-.5-2.56c-1.48.4-2.9.9-4.33,1.37-1.07-5.88-2.42-12-4.17-18.44l-1.06.4-.41-1.22a69.48,69.48,0,0,0-13.83,8.64c-.21-1.08-.39-2.13-.63-3.23l-2.17.64c.31,1.43.55,2.81.82,4.22a98.46,98.46,0,0,0-12,12.2c-.17-1.64-.35-3.28-.57-4.95l-2.21.41c.32,2.36.57,4.69.79,7a159.1,159.1,0,0,0-10.47,15.07c-.12-1.61-.28-3.17-.5-4.65l-2.2.46a67.91,67.91,0,0,1,.67,7.54c-3.51,5.93-6.84,12.18-10,18.62.1-1.45.2-2.9.24-4.26l-2.23-.09c-.09,3.06-.37,6.44-.76,10q-1.63,3.41-3.23,6.87-2.85,3.94-5.64,7.94l-1.06-.61c-.71,1.7-1.4,3.43-2.09,5.16l-3.22,4.7c-3.61,3.64-7.18,7.32-10.74,11-6.26,6.45-12.56,12.93-19,19.16-29.77,21.83-61.24,41.65-100.45,38.77q-2.44-.18-4.9-.51a7.36,7.36,0,0,0-6-1.08l-.08,0a115.85,115.85,0,0,1-12.39-3.26c-3.15-3.56-6-4.95-8.59-4.13a5,5,0,0,0-.54.25c-13.14-6.13-26.68-13.88-40.59-21.86-5-2.86-10-5.73-15-8.53-4.29-2.56-8.6-5.07-12.91-7.48-32.66-22.91-66.26-39.89-101.21-30.88-31.74,8.19-52.45,44-72.46,78.64-14.6,25.26-29.7,51.39-48.9,66.42-18.76,14.69-38.84,16.68-60.09,18.79-12.52,1.24-25.46,2.52-38,6.68-15.69,5.22-31,13.47-45.76,21.44-10.2,5.5-20.74,11.19-31.29,15.81-57.3,25.09-99.25,4.25-147.81-19.89-15.36-7.63-31.23-15.52-48.37-22.3-21.28-8.42-43-15.26-64-21.86-39-12.29-79.37-25-117.66-48.29-19.71-12-39.35-27-60.14-42.81-10.3-7.85-20.67-15.75-31.13-23.34-8.08-8-16.31-15.74-24.64-23-18.32-18.52-37.39-33.63-57.77-40.91-1.88-2.17-3.85-3.61-5.93-4a6.9,6.9,0,0,0-4.89.94c-.83-.17-1.65-.36-2.48-.51-1.48-.26-3-.46-4.46-.63-2-2.43-4.16-4-6.38-4.3-2.61-.37-5.07.95-7.41,3.93-15,.81-30.6,5.31-46.52,11.93-19.34,7.56-38.66,18.25-57.64,28.76-5.55,3.08-11.15,6.17-16.77,9.21-15.44,5.47-31.12,10-46.91,11.6l.1,1.31-.77-.95c-3.91,4.43-7.8,9-11.67,13.5l-.41.11.06.31q-4.13,4.85-8.21,9.73l-.76.25.12.52-5.79,7-.51.17.08.34q-5.37,6.49-10.67,12.92c-11.85,14.38-24.09,29.26-36.5,43.38-3.12,3.55-5.95,7-8.55,10.42l-.56,0v.69a189,189,0,0,0-11.32,16.72c-1.39,0-2.78.06-4.16.07l0,2.63,2.57,0c-1.77,3-3.45,6.05-5.07,9.11-2.14,0-4.3.1-6.44.12l0,2.63c1.67,0,3.35-.07,5-.1q-1.26,2.43-2.5,4.89c-2.2.07-4.4.16-6.59.21l0,2.63c1.73,0,3.48-.11,5.21-.16l-1.09,2.2c-1.67.08-3.35.19-5,.25l.07,2.63c1.2,0,2.41-.13,3.61-.18l-.52,1.05c-.83.05-1.66.14-2.48.19l.11,2.63,1-.08c-.95,1.92-1.9,3.85-2.88,5.83-17.49,35.2-40.37,57.68-67.2,66.39-3.82.45-7.79.81-11.92,1.09q-21.32,0-42.55-.41l0,2.63c5,.11,10,.17,15,.24v.18q-16.12-.29-32.19-.7l-.05,2.63c4.38.11,8.77.21,13.15.3a119.26,119.26,0,0,0-21.54,6.09l-12.19-.3-.05,2.63,6.23.15a153,153,0,0,0-25.95,15l-5.27-.11,0,2.63,1.77,0a293.88,293.88,0,0,0-30.52,26.53l-1.7,0v1.7c-8.07,8-16.29,16.69-24.83,26h-.33v.36q-4.28,4.67-8.67,9.53l-1.89,2.09,2.58.18a16.06,16.06,0,0,0,6.22-1V850c4,0,8.1.12,12.15.19l-.1.12c-6.89,0-13.79,0-20.66,0v2.63h.66v2.11c5.3,0,10.62.08,15.93.11l-18.87,22.56.79.92-.06,1.31c49.21,2.92,97.86,17.24,144.91,31.09,11.78,3.47,23.65,7,35.61,10.29l.65.84.48-.52q11.76,3.27,23.62,6.27l1.23,1.61,1-1.06c7.76,1.93,15.55,3.75,23.37,5.38l1.39,1.79,1.19-1.27q11.92,2.43,23.93,4.26l1.37,1.17c.18-.3.38-.58.56-.87q13.06,1.91,26.21,2.89l.19.24.18-.21c4.66.34,9.32.61,14,.75,40,1.13,80.43,5.49,119.57,9.7,33.81,3.64,68.78,7.41,103.29,9.08q15.35.74,30.72.72,11.78,0,23.57-.39l.09.08.06-.08c9.54-.31,19.08-.79,28.62-1.41l.14.11.08-.13c39.94-2.6,79.72-7.63,118.79-12.78.05,1,.27,1.7,1.11,1.76h.2c.44,0,.73-.24,1-2.08l7.85-1c23.7-3.14,48.21-6.38,72.35-9.06,17.68-2,35.43-3.33,53.21-4.23,3.89.09,7.79.15,11.7.15,14.56,0,29.21-.6,43.87-1.55,55.14-.13,110.21,3.09,164.17,6.27q21.84,1.29,43.67,2.51c39.95,2.18,80.74,4.74,120.19,7.21,128.71,8.06,261.81,16.39,391.79,13.55,42-.92,84.68-3.55,125.94-6.09,40.7-2.51,82.79-5.1,124.22-6.05a335.44,335.44,0,0,0,41.31-3.64l.28.56,1.2-.8c8.59-1.3,17.15-2.89,25.67-4.7.12.24.25.47.37.71l1.66-1.14c8.41-1.81,16.79-3.84,25.13-6l.2.39,1.09-.73c22.18-5.82,44.11-12.65,65.73-19.41,48.67-15.21,99-30.93,150-34.18l-.06-1.31Z"/>
        <path class="cls-5" d="M3177.59,428.61c-68.67,32-73.36,185.19-148.74,193.92-88,10.19-165.76-133.52-254.16-110.73-54.34,14-75.26,109.07-121,144.87-30.51,23.89-65.54,14.71-98.37,25.64-26.43,8.79-51.11,25.9-77,37.21-76.05,33.3-126-14.11-196.93-42.18-61-24.15-122.86-34.38-181.78-70.23-65.69-40-134.75-116.1-208.58-117.78-55.86-1.27-108.16,39-163.88,44.76m-12.62,13.95c59.37-15,121.22-73.51,181.33-74,66.82-.49,134.2,97.07,189,141.85,55.54,45.37,120.78,55.54,181.91,79.2,73.82,28.58,132.13,71.23,210.2,42.43,31-11.42,60.51-30.08,92.34-36.93,30-6.45,57.46-2.16,84.73-23.93,46.83-37.38,67.8-126,120.42-150.51,74.87-34.83,154.74,75.17,230.35,76.18,86.2,1.15,103.74-134.73,182.51-155.83M1705.74,558.33c62.83-19.85,143.46-96,207.31-84.73,69.59,12.29,123.3,122.47,183.48,166.47,53.5,39.12,120.18,50.27,177.54,74.88,69.17,29.68,126.47,59.61,200,33.86,31.39-11,61.64-27,93.74-33.75,29.93-6.33,58-3.29,85.36-25.05,48-38.17,69.22-123.84,120.29-157.16,64.69-42.21,145.19,54.08,210.82,60,89.77,8.12,123.38-112.68,206-124M1699.57,566c42-13.62,81.68-32.72,122.21-53,30-15,66.39-40.58,98.5-34.05,66,13.4,111.71,122,168.73,164.23,53,39.28,120.76,54.77,177.67,80.8,69.32,31.7,129.45,53.74,202.79,30,32.25-10.42,63.59-25.26,96.43-31.85,30.94-6.21,58.59-4.27,86.56-27.36,48-39.62,71.6-133.19,125.63-161.08,65.62-33.86,132.87,50.72,198.52,55.56,84.79,6.25,131.12-91,211.32-94.7M1695,572c43.77-12.93,86-30.66,128.69-49.13,31.24-13.5,70.12-38.58,103-31.59,62.1,13.19,100.89,112.91,155.19,151.23,53.77,38,120,58.54,176.94,86.61,69.18,34.13,132,48,204.91,26.07,33-9.95,65.35-23.76,98.88-30.24,32-6.17,59.32-5.3,88-29.5,49-41.35,74.91-138.44,131.92-163.69,63.71-28.22,125.51,54,188.75,59.5,79.75,7,134.33-70.18,211.07-68.62M1691.09,577.54c45.3-10.95,89.54-26.09,134.14-41.66,32.74-11.43,73-33.69,106.85-26.81,58.2,11.82,91,98.82,143.06,130.94,56.16,34.64,118,61.45,175.67,92,68.89,36.49,134.1,42.5,206.58,22.2,33.76-9.46,67-22.23,101.15-28.56,32.44-6,61-5.07,89.54-31.44,48-44.33,79.76-145.07,139-165.4,62.74-21.53,119.88,61.89,181.44,69.51,74.93,9.28,133.92-51.15,206.87-46.13m-1488.7,31.35c46.7-8.2,92.7-20.1,139-32.21,34.53-9,75-27,110.29-20.74,53.65,9.5,83.44,81.18,132.54,106.84,58.72,30.69,115.86,63.72,174.21,96.55,68.47,38.53,136.05,37.12,208,18.66,56.78-14.57,146.08-14.13,194.57-59.65s84.46-152.26,146.68-166.58c62.62-14.41,115.72,72.75,176.54,83.31,70.29,12.2,131.24-34.47,200.36-27.61M1680.71,591c82.67-9,174.65-48.41,257.19-36.86,49.13,6.88,77.83,63.48,123.85,82.42,61.54,25.32,113.8,65.25,172.89,100,68,40,138,31.92,209.36,15.68,58.85-13.39,148.28-10.59,198.49-58.33,49.2-46.78,89.6-159.95,154.83-167.65,63.25-7.47,112.89,84.82,174,98.57,65.86,14.81,127.73-20.63,193.19-13.44M1672.16,601.11c87.25-4.62,178.42-31.81,265.52-22.87,44.53,4.57,74.9,45.83,117.2,61.14,63,22.8,112.33,66.07,172.05,102,67.41,40.54,140.21,26.95,210.9,13.51,61.14-11.63,150.34-5.49,202.51-55.68,50.39-48.48,94.85-167.72,163.29-169,64.52-1.19,111.39,96.43,173.74,113,61.92,16.45,124.78-10,187-4M1660,614.79c91.12-1.8,183.94-20.81,274.94-13.68,41.74,3.27,72.45,35.72,112.78,46.49,65.18,17.4,111.43,65.87,172,102.16,66.84,40,142.79,22.29,212.8,12.37,63.75-9,152.24,1.71,206.64-51.35,52.19-50.9,99.88-175.31,171.89-171,66.26,4,111.33,105.93,175.73,124.27,59,16.79,123.63-3.1,183.41.35M1643.09,633.11c96.72-1.87,196.85-22.51,293.32-12,35.07,3.81,59.84,32,93.47,40.81,34.2,8.94,60.29,8.67,92.52,32.21,32.52,23.75,62.49,54.38,96.94,72.8,64.52,34.51,142,14.53,209.13,9,64.92-5.35,147.83,13.14,204.71-39.07,60.18-55.26,115.8-206,199.32-176.28,65.12,23.18,106.65,114.73,175.21,128.12,56.51,11,119.15-2.17,176.19-2.6M1627.61,650.59c97.32-.76,196.28-19.63,293.45-11.69,36.41,3,62.72,29.57,97.36,39,32.4,8.82,58.58,7.27,89.58,28.26,31.55,21.36,60.06,50.66,91.93,71.26,69.64,45,148.89,27.63,222.87,19.2,70.52-8,159.31,3.17,219.38-55.79,57.08-56,110.08-183.91,189-163.56,71.69,18.49,119.18,117.93,193.43,130.16,57,9.38,118-6.43,175.3-7.09M1618.69,662.41c94.43-.85,189.64-20.06,284-14.18,44,2.75,79.88,33.29,122.95,42.08,60.45,12.33,100.86,47.92,154.73,85.28,73.92,51.27,153.7,42.42,233.81,33.92,77-8.16,168,.08,232.32-67.15,52-54.38,104.58-168.33,176.94-154.77,78.31,14.67,132.94,119.9,213.32,130.08,57.84,7.32,117.76-10.92,175.74-11.89M1614.65,670c90-1.77,180.5-24.1,270.42-18.86,47.68,2.78,87.24,36.56,134,45.81,57.85,11.45,97.64,40.21,149.93,74.21,74.81,48.65,153.17,50.69,234.41,45.34,77.72-5.12,169,3.34,234.13-64,53.29-55.1,105.76-167.59,179.26-155.47,81.22,13.39,141.93,114.92,225,124.27,60,6.75,120.9-15.2,180.9-16.6M1613.81,675c82.74-3,165.37-28.1,248.14-24.89,52.18,2,94.09,40.58,144.81,50.71,61.12,12.2,106,35.35,163.13,68.22,70.83,40.72,145.4,50.92,221.38,50.68,68.76-.22,158.14,11.82,218.31-41.47,63.7-56.42,119.18-189.91,203.86-172.51,83.07,17.07,149.08,109.51,234.86,115.57,61.23,4.32,121.77-19.92,182.93-21.77M1614.51,678.64c75.66-4.45,150.37-33.2,226.17-31.57,57,1.22,103.34,46.53,158.77,57.07,57.33,10.91,103.2,22.32,157.89,51.11,72.17,38,144.41,60.75,221.51,66,69.17,4.69,157.5,20.59,218.3-33.81,64-57.24,119.8-191.88,205.08-175.62,86.55,16.51,159.07,102.81,247.95,107.55,63.67,3.39,125.56-24.54,189.07-27m-1624.18-9.79c68.31-5.65,134.75-39.25,203.31-38,62,1.13,112.8,53,173.19,63.8,53.85,9.61,101.14,9.31,153.58,33.57,74,34.24,143.47,70.32,221.77,81.22,69.51,9.68,156.54,29.58,218-26.11,64.83-58.71,119.7-192.64,206.11-178.83,90.39,14.44,168.91,96.44,261.23,99.86,66.13,2.45,129.4-29.31,195.29-32.48m-1633.79,2.63c60.52-6.22,117.29-42.74,178.1-43.27,66.59-.58,120.56,56.53,184.88,69.1,50.61,9.89,100.12-2.76,150.42,15.61,78.42,28.64,147.68,82,229.28,98.14,76.22,15.09,161.78,36.51,227.86-30,64-64.41,116.22-186.6,204.39-170.28,92.67,17.15,176.12,91.59,271.07,92.16,67.18.4,130.48-34.32,197.44-38.16M1609.08,697.11c55.24-6.33,104.39-46,160-46.68C1839.89,649.55,1898.54,711,1967,725c50.11,10.25,100.29-11.93,150.27,2.34,80,22.84,148.77,89.79,231,109.42,76.53,18.27,161.58,40.4,228.28-26.67,65-65.38,117-186.82,206.24-171.68,96.38,16.35,185.06,88.39,283.44,88.17,69.36-.16,133.84-39.39,202.91-44.1M1599.19,710.66c50.79-5.49,93.14-45.17,144.19-47.19,73.5-2.91,135.72,59.54,206.25,76.82,51.84,12.7,102-16.36,153.15-6.9,31.79,5.88,59,28.42,87.35,47.81,48.66,33.31,99.56,57.53,152.91,70.65,75.4,18.54,160.09,38.52,226.41-24.64,65.47-62.35,118.41-184,205.48-174.3,98.58,11,189.88,82,289.34,87.16,75.8,4,144.87-43.53,219.9-49.45M1582.47,730.38c52.33-4.09,93.93-45.25,147.06-43.79,73.65,2,136.6,61.06,208,77.71,55.32,12.89,108.58-21.09,162.52-9.86,33.13,6.9,61.47,34.62,91,54.78,47.71,32.61,98.52,55.47,150.94,66.7,71.59,15.33,158.67,30.27,222.55-25.25,68.72-59.72,126.08-191.5,215.3-177.86,99.42,15.2,192.57,81.41,292.7,91.18,80.2,7.83,151.87-48.6,230.78-55.65m-1739.85,40c53-.34,98.89-39.28,152.17-38,77.6,1.85,144.25,62.5,219.9,77.58,54.41,10.84,108.77-17.17,162.4-4.43,33.3,7.91,62.47,32.34,93,51.29,48.95,30.4,99.61,51.24,152.65,61.8,71.68,14.27,161.53,32.84,226.07-22.18C2637.55,816.43,2698.11,684.75,2785,692c104.24,8.69,200.61,88.41,305.31,97.23,80.66,6.79,152.05-55.7,231.49-63.48M1547.34,757.21c57.65-.18,111.81-32.29,169.53-31.27,75.52,1.32,140.36,55.08,213.57,71.49,54.05,12.12,108.07-9.88,161.66,1.59,36.15,7.73,67.78,31.44,101.22,50.56,49.33,28.2,101.85,44.26,154.58,52.9,80,13.12,172.08,32.18,243.18-30.86C2658.33,812,2719,693.93,2805.67,706.67c100.9,14.84,193.55,93.2,295.66,99.66,81.93,5.18,153.32-64,234-73.12M1533.09,759.68c65.84-1.71,130.46-24.71,196.3-24,76.28.87,141.77,53,216.2,65.66,50.36,8.55,101.68-7,151.63,6.59,34.77,9.44,67,30.42,100.3,46.39,50.93,24.39,103.64,37.53,157.19,44.12,80.26,9.88,174.88,28,247.39-29,65.83-51.73,129.87-166,211.42-155.62,100.73,12.77,191.44,99.78,293.5,103.42,83.65,3,155.88-73.15,238.32-83.87M1519.64,758.27c81-.43,161.75-20,242.73-16.43C1828.8,744.79,1888,786,1953,798.15c50.66,9.47,101.4-2,151.59,14,88.2,28.16,166.36,68,258.22,75C2443,893.31,2540.91,911.91,2615,861c69.66-47.86,137.69-155.93,221.45-139.72,88.61,17.15,167.61,91,257.36,101,91.76,10.29,169.76-79.86,259.44-93.12M1506,755.55c93.68,1,187.3-12.35,281-9.06,65.06,2.29,123.3,39.26,187.26,48.23,47.2,6.62,91.76,1.32,138,18.84,86.92,33,169.11,56.55,259.65,59.43,82.13,2.61,179.6,17.77,257.15-25.43,71.67-39.93,137-132.69,218.42-121.9,86.26,11.43,160.18,95.21,247.47,102,93.6,7.3,174-89.49,265.71-104.49M1491,754.09c106.83,2.26,213.65-5.37,320.47-2.4,60,1.67,113.91,29.78,172.82,37.95,45.73,6.34,85.59,3.4,129.58,23.24,86.63,39.07,176.31,46.78,266.78,45.92,87.94-.84,191.47,13.06,275-30.73,69.85-36.62,136.64-111.94,214.82-96,78.72,16.09,144.6,97.07,225.5,101,96,4.62,178.45-98.47,272.77-115m-1895,38.35c119.4,3.14,238.82.42,358.23,3.12,58.4,1.32,112.79,24.06,170.54,29.14,45.19,4,76.28,7.39,117.67,29.17,83.29,43.84,181.49,34.63,268.67,30.84,89.63-3.89,193.93,7.51,280.51-28.94,69.25-29.16,137.76-95.16,212.88-82,76.9,13.5,137.61,102.6,216.88,102.85,98.93.31,182.57-106.37,280.16-124M1453.13,765.16c135.19,3.53,270.41,3.84,405.6,7.33,49.72,1.28,97.25,16.43,146.59,20.32,48.83,3.85,75.21,9.52,117.85,36.1,78.33,48.83,190.2,22.65,272.26,17,92.72-6.34,195.68,1.73,286.33-28.12,72.31-23.8,146-86.85,222.52-67.92,67.38,16.66,119.32,94.7,188.71,102.87,104.79,12.34,198.05-112.81,300.62-131.22M1428.11,782.83c192.62,3.94,384.76,12.6,576.85,23.09,27,1.47,57.74-4.54,83.23,11.27,13.05,8.1,22.58,24,35.6,32.39,25.66,16.59,56.79,14.39,84.3,14.9,63.86,1.18,128-4.92,191.71-10.18,98.44-8.12,205-.11,301.53-29.91,71-21.92,144.62-75.92,219-57.64,68.12,16.75,117.55,100.69,188.81,105,106.56,6.44,199.1-118.56,304.16-136.22M1397.64,812c202.19,1.69,404.18,11.43,606.13,18.4,24.86.86,52.34-3.38,75.32,12.61,13.42,9.33,22.66,26.46,36.1,35.75,27.68,19.14,63,13.92,92.55,12.77,64.5-2.52,128.95-8.76,193.35-14.19,99.76-8.41,206.7.4,304.84-28.05,73.56-21.33,153-77.85,229.47-59.76,72.09,17,121.35,109.17,197.89,109.5,108.09.46,198.89-121.9,306.31-137.68M1372.48,839.7c204.37-.53,408.56,11.11,612.95,6.83,28.62-.6,58.46-3.77,85,14.35,14.7,10,25.53,27.92,39.85,38.7,26.08,19.62,56.21,20.09,85,19.16,69.61-2.26,139.21-8.76,208.72-14.12,103.91-8,214.52.63,316.49-31.59,71.43-22.57,151.41-77.48,225.82-58.81,71.86,18,125.41,102.28,200.31,107.63,111,7.93,207.76-117.73,317.67-134M1362.12,852.73c205.68-.89,411,16.19,616.73,8.86,55.63-2,85.64,22.29,134.44,50.22,33.7,19.29,68.94,18.56,104.74,17,64.24-2.77,128.44-7.4,192.63-11.67,103.65-6.89,213,1.27,314.91-28.92,70.94-21,149-73.17,222.65-58.67,76.34,15,136.58,99.75,215.37,102.24,110.26,3.48,206.08-113,315.6-128.61m-2116.4,51.65c201,.13,401.89,22.05,602.95,21.36,55.76-.19,99.23,19.6,152.07,38.88,95.08,34.69,205.5,8.65,302.19,3.57,103.19-5.42,211.14,2.74,312.87-24.81,70.69-19.14,146.27-64.59,219.21-52.25,77,13,142.06,87.68,220.89,89.68,109.43,2.78,205.08-106.49,313.84-120.95M1370.73,849.8c193.88,2.1,387.42,30.61,581,40.41,58.69,3,114.55,12.69,172.69,22.74,100.91,17.44,205.49,3.65,306.75,0,102-3.69,207.68,4.38,308.65-19,70.1-16.21,142.59-52.84,214.35-43.26C3031.6,861,3101,923,3179.66,924.12c108.06,1.49,202.71-99.15,310.18-111.9M1382.18,841.35c184.29,4.66,367.16,40,550.23,61.73,168.05,19.93,342.53,3.76,510.77.72,101.34-1.83,205.13,6.07,305.83-12.66,70.14-13,140.67-39.43,211.87-31.31,74.83,8.54,145.39,52.58,220.92,54.12,107.58,2.2,202.23-91.11,309.11-102.13M1393.4,833.27c115.12,4.81,229,33,343.94,41.71,61.75,4.66,120.29,30.28,181.35,40.6,71.27,12,147.28-5.59,218.8-12,106-9.56,211.45-8.53,317.71-8.47,99.78.06,200.91,7.18,300.43-5.35,69-8.68,137.57-25.29,207.1-20.66,75.57,5,149.14,35.72,225,35.62,105.9-.14,199.59-83.45,304.93-92.53M1400.61,829.31c106.25,6.14,210.5,39.22,316.55,49.54,64.55,6.28,125.31,36.19,189,48.7,77.33,15.18,161.37-13.5,238.53-25.92,107.53-17.31,213.36-13.15,321.56-11.12,98.57,1.86,197.63,7.75,296.17,1.5,67.95-4.31,135.56-12,203.65-10.37,76.69,1.88,152.78,19.78,229.56,18.18,104.48-2.17,198.06-76.27,302.11-83.7m-2097.7,17.1c166.59,11.56,330.75,74.67,495.56,105.87,83,15.71,172.55-18.24,254.9-34,108.93-20.91,215.16-14.93,325-11.08,165.62,5.8,330.93,7,496.57,5.76,78.32-.56,156.65,6.13,235,3.38,103.81-3.65,198.29-70,301.78-76.36M1388,848.79c98.41,7,192.52,51.15,290.79,61.32,74,7.66,146.13,33.64,220,41.78,86.36,9.52,176.49-21.49,262.05-36.66,107.39-19,213.11-11.15,321.08-6,166.13,7.9,333.79,19.84,500.07,16.19,78.27-1.72,156.52-5.15,234.78-7.14,106.87-2.72,205.28-65.16,311.67-71.3M1360.63,879.75c101.87,6.05,197.74,59.76,299.86,62.66,74.53,2.11,148.44,15.18,222.88,18.79,95.32,4.62,189.64-13.75,284.46-24.28,105.5-11.72,211.22-2.62,316.79,3.15,169.76,9.27,342,24.48,511.9,20.76,83.44-1.83,166.7-10.24,250.15-12.15,106.64-2.44,206.25-62.16,312.6-68.93M2488.55,714.67q1.08,50.09-28.28,34.38-26.38,17.63-33.38,60.12c-16.77,18-112.4,27.89-58.69,94.27a370.58,370.58,0,0,1,48.17-59.14q-2.22,56.11,33.87,70.61,44-59.23,57.07,26.41m-39.25-217.37q-2.93,49.63-32.67,31.33-29.12,11.85-36.55,56.81c-22.62,20.82-104.15,4.14-63.93,86.68A311.08,311.08,0,0,1,2373,847.17q-8.91,58.51,29.46,69.8,44.52-63.44,59.43,21.85m-15.22-209.58c-4.13,32.79-16.31,44.3-36.52,31.35q-30.93,7.19-39.63,53.76c-29.7,22.67-95.3-19.09-69.51,77.69a243.41,243.41,0,0,1,29-42.67q-15.53,60.88,25.37,69.61,45-67.44,61.74,17.42m9.41-205.46c-5.5,32.74-21,46.05-41.83,33.55q-31.81,4.64-42.45,51.28a467.3,467.3,0,0,1-63.1-7.06q-17.53,34-12.21,74.13a158.54,158.54,0,0,1,21.38-32.27q-21.56,63.36,21.81,70.25,45.53-71.1,63.83,13.39m27.5-206c-5.82,33.12-21,48.8-42.56,38.23q-31.77,5-44.86,49.68a363.73,363.73,0,0,1-65.55-20.88q-19,33.59-15.63,75.51A62.17,62.17,0,0,1,2249,850.51q-26.48,66.13,19,71.9,46.14-74.32,65.54,10M2376,720.7c-27.24,65.23-23.44,20.68-60.07,51.43C2291,793,2299.21,822,2261.72,807.23c-33.08-13-48.51-49.33-59.85,8.25-4.66,23.69-7.88,45.94,8.18,29.83q9.47,37-2.47,76.73,27.85,5.67,49.73-18.51,31.11-42.42,39.67,27.65m48.51-223.8c-20.29,58.36-26.06,35.22-55,64.39q-16.72,63.43-58.08,27.52l-35-33.42c-39.41-15.9-32.19,39.23-28.39,73.44q11.39-10,10.66,6.93,7.57,37.68-4.11,76.9,28.2,4.94,50.36-19.51,31.54-43.4,39.41,27m58.91-233.06q-5.55,53.81-40.8,58.33a308.45,308.45,0,0,0-48.44,50.45c-33.7,6.8-66.2-106.93-91.78-32.17-32.14,93.94,13.79,24.95,15.68,66.92q-32.73,72,14,82,44.73-70.73,64.11,8.09M2306.33,688q-7.67,54.66-44,59a421.94,421.94,0,0,0-48.72,49.72c-33.48,5.69-61-104.56-88.58-33.36C2101.93,823,2129.35,807,2142,836.17q-32.65,66.65,9.5,84.4Q2191.94,861.22,2208,933m81.1-252.69c-21.69,43.36-42.11,59-73,84.63-47.59,39.45-42.24-21.71-83.11-26.61-38.47-4.61-24.71,42.45-19.67,76.78q25.66,1.5,10.91,37.3-8.63,34.25,4.72,66.11,36.13-47.24,49.23,17.25m94-261.79c-24.8,43-45.08,51.59-76.94,77.62-45,36.75-37.87-15.87-77.32-18.89q-33.76-19.84-28.79,56.31l10.93,21.39q28.71-2.69,13.9,35.73a191.37,191.37,0,0,0-.49,67.18q30.58-31.68,34.39,25.94m107.54-270.72Q2241,716.28,2210,712.06q-28-4.44-41.41,37.62c-26.64,13.58-43.7-30.51-63.42-27.11q-31.78,15.5-24.91,56-9.1,32.55,11.31,27.21,23.53-4.56,17.31,38.67l-10.35,61.2q23.66-7.11,18.68,37.56M2238.36,663.5q-22.87,52.59-62.35,35.62l-26.57,34.8c-32,18.85-65-42.6-82.61,20.37-22.36,79.77,31.38,19.23,35.57,82.71-4.12-62.37-16.14,132.4-15.92,110.31m134.25-288.93q-25.65,49.75-63.58,26.6-14.32,33.61-39.62,38.21-20,12.1-39.69-5.72-36.6,30.41-22.62,85.06c77.29-8.43,11.43,93,.54,148.86m146.43-298.66q-27.81,47.11-63.94,18.89-15.18,28.67-38.2,40-16.66,15.15-36.41,4.7-36.47,32.75-22,86.54c94.36-18.61,1.93,100.65-16.39,152.3m157.16-309.11q-29,45.26-63.3,13.58-16.07,25.43-36.79,42.14c-36.5,25.27-62.75,30.07-56,101.82,37.11-9.71,63-9.87,36.53,44.71-20.12,41.48-47.41,68.33-67.74,110.08m165.94-320.51q-28.69,44.8-61.53,11.77a352.43,352.43,0,0,1-35.44,44.59c-33.6,30.22-62.54,42.67-55.52,110.15,35.85-10.84,69.76-17.05,39,39.43-24.15,44.3-56.46,73.83-81.95,117m172.24-333.06q-24.43,47.35-54.74,15-20.51,12.38-32.31,38.22c-33.92,36.39-52,57.21-73.56,115.65q32,12.14,63.22-6.67c-5.45,82.13-66.63,114.35-103.63,172.16m178.8-345.61q-21.22,43.13-51.3,20.68-19.19,17.18-32.42,42.82c-34.38,38.18-54.7,57.19-78.76,115.92q32.85,12.14,65-6.19c-7.28,83.13-70,115.53-109,172.39m185.65-358.07q-17.86,33.7-45.54,26.16a403.05,403.05,0,0,0-33.13,48c-36.85,39.81-59,51.21-86.44,113.79q34.26,13.39,68.48-3.54c-6.85,86.06-73.44,116.77-114.92,172.69m190.15-371.3q-13.26,25-34.57,29.69a310.21,310.21,0,0,0-40.41,67.13q-25.15,11.3-49.87,24.41-38,28.07-34.7,83.27a235.74,235.74,0,0,1,74.42-4.16c-26.82,85.8-81.94,108.9-129.48,169.37m-23.36-2.07q35.27-51.17,83.05-75,46.79-26.27,55.51-94.64a258.91,258.91,0,0,0-81-1c5.49-92.88,52.12-70.52,94.3-104.76,19.26-15.63,48.46-79.88,64.34-107.51m-238.82,380.5q38.72-53.76,91.1-74,50.52-23.59,57.31-96.1a291.8,291.8,0,0,0-88.43-6.77c3-102.53,60-68.25,104.67-101.62,27.8-20.76,37.21-81.75,52.2-117.75M1790.57,952.57q42.29-57,99.47-72.85Q1944.52,859,1949.18,782c-26.94-5.7-97.82,5-96.31-33.14,2.08-52.57,50.29-66.47,80.76-72.14,51.53-9.6,74.67-58.51,74.08-133.36M1768.36,950q39.49-56.77,94.93-66.58,52.21-13.51,77.77-80c-11.72-81.88-138,9.53-109.33-85.66,25.19-83.51,106.33-19.2,143.74-67,14.32-18.31,33.52-101.32,10.56-122M1745.83,947.54c32-32.48,53.81-50.22,91.79-63.75,29.47-10.5,78.41-24.55,84-77.33q17.63-34.21-12-35.06-20.18-14.06-42.84-11.26c-24.34-2.24-78.8,4.39-56.2-52.81,29.51-74.66,101.73-22.5,143-50.12,26.16-17.49,49.94-142,11.22-141.8m-242.13,430c51.55-54.25,65.31-49.07,123-69.69,20.37-7.28,59.49-30.69,66.39-62.34,14.29-65.56-58.06-56.45-82.29-61-31.22-5.84-57.1-7.23-36.75-53.55,35.59-81,113.25-11,157.42-55.18,27.43-27.44,23-168.28-6.27-139.45m-245.75,439.5c42.26-46.1,65.41-57.44,115.15-66.7,23.22-4.32,87.31-27.51,86.38-77.78-1.62-88-171.94-11-132.76-107.94,36.52-90.32,133.49,1.33,177.83-53.83,30.4-37.83,3.71-183-20.61-141.72m-251.6,446.91q30.74-51.19,76.61-63.47,30.57-3.5,61.21-5.43c24.42-6,75.49-39.79,70.7-83.91-8.56-79-179.43-5.17-134.08-102.46,43.07-92.41,127.77,4,177.79-46.87,21.57-21.92,23.72-60.9,21.08-94.94-1.34-17.26-19.21-110.74-40.41-55M1645.51,942.24c52.49-59.92,73.62-58,135.63-67.71,23.25-3.64,73.34-34.35,75.18-76,3.83-86.47-177.4-20.46-134.54-112.49,43.44-93.29,139.58,8,188.76-50.8,18.91-22.63,20.57-65.44,17.83-97-1.46-16.79-21.94-110.64-40.16-48.87M1618.42,940.16q32.3-52.14,79.41-65.3,27.62-1.58,55.26-1.11c24.81-4.78,77.58-41.61,73.35-84.75-7.62-77.63-165.67-8.81-121.21-101.1,42.32-87.86,125.59-1.73,177-47.45,22.93-20.4,28.07-58.77,25.82-94-.86-13.48-17.3-108.69-36-55.48M1592.09,935.8c49.77-53.48,61.19-55.11,116.81-63.93,28-4.44,71.65-23.26,76-71.72q14.94-25.86-8.53-41.28a193.44,193.44,0,0,0-60.7-15.26c-25.77-5.94-48.94-9-29.26-53,34.35-76.81,119.36-15.25,165.13-45.2,25.76-16.86,35.38-52.67,34.87-90.16-.13-9.81-11.77-104.42-29.49-61.12M1566.33,929.68c56-59.45,46.73-48.48,100.39-60,25.75-5.52,77.17-24.54,81.75-73.41,3.7-39.49-10.08-38.78-34.32-47.26-26-9.09-50.89,2.74-46-38.79,9.49-81.08,110.17-44.76,144.88-57.46,44.44-16.27,70.67-111.47,36.29-161.59l-6.61,7.32M1541,922.32c60.38-64.81,39-44.67,89.77-55.4,22.55-4.77,78.53-42,78.5-81.89-.05-63.92-85.66-12.74-42.7-84.66,39.6-66.31,92.6-18.94,137.84-55.69,22-17.88,57.64-136.78,24.59-140.94m-313.1,410.51c23-25.07,39.6-47.86,67.43-57l10.7,7.42q23.4-6.23,38.16-33.26c9.62-11.86,44.16-50.14,36.59-71.3-4.5-12.58-22.25-11.35-31.31-16.05,8.33-85.79,88.93-67.12,128.06-88.6,42.55-23.35,57.12-89.6,50.09-146M1490.86,906c86.4-97.13,35.18-27.65,60.29-48.38,17.37-14.34,44.13-36.83,63.27-64.45,35.24-50.86-10.24-30.2,32.15-81.33,32.56-39.27,64.2-34.88,98.68-60.31,21.54-15.88,41.33-48,48.51-81.56,4.26-19.91-.58-39.38,8.52-54.59M1465.72,898c27.1-31.68,48.93-79,45.86-38.43C1560,807.7,1620.55,711.89,1678,676c31.24-19.55,47.09-19.55,72.92-61.73,12.34-20.15,20.94-84.37,37.83-93.24M1440.3,890.87,1482,840a142.71,142.71,0,0,1-12.14,17.34c34.51-42.93,67.1-80.63,109.07-102.39,32.46-16.83,55.32-45.71,85.11-74.25,22.87-21.91,40.49-34.35,61.41-65,15.39-22.54,27.66-78.47,49.26-89.71M1414.42,885.11l39.94-50a182.93,182.93,0,0,0-23.85,20.61c38.15-55.33,74.4-83.23,124.3-99.75,39.51-13.08,61.75-29.19,94.14-71.24,17.35-22.52,35-45.07,52.12-67.81,18.8-24.95,34.57-71.52,58.88-86.79m-372,351.07,39.3-48.92A109.36,109.36,0,0,0,1396,854c21.67-51.65,85-97.13,127.2-98.92,46.2-2,73.45-7.58,106.91-64.68C1662.58,635,1702,577.15,1744.21,533M1360.63,879.75l40.44-48.34c-12.06,4.56-26.68,18.53-36.5,17.83,48.8-54,88.22-94.38,150.86-91.8,40.65,1.67,74.31-22.92,98.23-71.07,11.34-22.84,19.68-41.75,39.29-64.07,25.25-28.73,49-59.54,74.26-88.19m1450.38-105.5c18.38,67.59-3.88,100.91-11,165.76-4.69,43,.36,89.14,34.75,104.19,22,9.64,24.92-5.56,43.51-11,27.31-8,34.18,3.43,58.18,20.68,21.87,15.71,29.31,23.13,52.46,19.17,38.1-6.51,31.14-17.74,75.82,25.27,43.5,41.88,85.49,82.66,127.92,127.09M3161.65,433.12c13.35,62.47-8.4,98.64-14,158.42-4.06,42.95,1.64,92.09,35.74,107.14,21.74,9.59,24.07-5.33,42.3-10.62,26.7-7.75,33.81,4.15,57.14,21.45,21.19,15.72,28.88,21.13,50.76,20.65,38.25-.84,24.42-21.15,72.29,25.9,43.41,42.67,83.45,79.55,125.81,125.3M3147.73,445.11c7.82,58.6-15.51,98.66-17.81,155-1.69,41.51,9.33,95.56,43.9,102.32,20.89,4.08,20.26-12.65,40-16.16,20.21-3.6,33.76,12.63,50.2,26.9,43.06,37.36,20.8,14.54,49.2,22q9.49-9.51,21.74-5.81L3367.81,753c47.1,42.62,92.18,84.1,136.53,132.61M3135.35,463c8.83,58.32-63.53,221.37,24.17,240.5,20.21,4.41,18.63-11,37.72-14,19.45-3,33.41,14.61,48.71,28.92,40.1,37.51,20,16.59,45.59,26,17.73,6.55,30.38,2.81,49.66,21.17,48.6,46.26,89.54,75.3,136.11,126.36M3124,485.06c-1.62,57.57-60.05,198.87,22.35,219.71,19.44,4.92,16.78-8.94,35.18-11.27,18.55-2.35,33,17.09,47,31.36,32.48,33.21,54,24.17,85.65,56.21,23.44,23.75,43,50.55,68,62.27,39.31,18.45-18.06-37.56,68.31,56.48m-337.25-390c-23.74,56.69-44.44,157.85,14.92,192.45,17.21,10,21.11-4.08,33.69-1.9,23.23,4,29.1,10.47,49,31.79,30.83,33,55,43.6,86.34,78.24,16.68,18.42,33.16,46,55.25,50.52q5.15-13.75,14.66-6.92,35,5.68,56.61,54.63m-321.25-373.1c-50.88,2.68-21.07,160.85,19.7,175,11.57,4,16.82-7,26.37-5.73,19.34,2.52,30.54,15.81,45.67,34.81,23.26,29.21,44.24,53.15,68.46,80.86,20,22.89,36.22,52.63,63.14,54.59q5.08-16.38,16-9.31,34.24,3.6,55.24,52M3091.28,560.56c-20.51-26.77-28.44,37-28.18,54.16.52,33.33,15.72,69.85,36.56,87.61,20.45,17.43,18.85,1.49,31.26,6.93,18.89,8.28,30,15.84,45.75,37.62,21,29,34,58.63,55.47,86.78,30.62,40.06,36.25,53.26,68.11,52.86l8.18-11.74q38,3.21,61.86,51.84M3079.15,583.41c-16.77-40-30.48,10.25-30.74,30.75-.45,35,19,76.27,41.33,91.69,28.06,19.39,39.79,6.13,68.09,47.94,25.72,38,26.27,68.69,54.59,106.32L3245.58,899q16.49,19.46,28.35-1.42l9-12.66q37.33,1.94,60.51,49.79M3065.59,602.38c-15.33-46.3-34.64-10.13-33.76,19.61.91,30.54,26.9,73.9,44.16,86.87,4.46,3.36,20,6,21.57,7.25,14.55,11.82,27.94,22.33,41.06,43.22,24,38.21,15,59.29,34.27,95.29,10.43,19.47,43.53,74.87,67.38,62.91a144,144,0,0,1,18.36-25q35.7,4.06,57.86,48.9m-266.38-325.6c-15.11-42.43-33.52-32.29-36.55,2.77-2.34,27.12,26.67,70.7,41.74,85.64,26.55,26.34,36.19,14.35,63.16,58.76,29.18,48.06,8.06,64.67,33.66,109.59,12.41,21.78,38.9,63.11,62.52,51.71a89,89,0,0,1,18.82-26.26q34.71,4.25,55.8,48.18m-257.06-324c-63.38-90.7-30.75,53.74,6.71,85.13,22.55,18.9,36.31,22.58,56.88,57.71,30.14,51.49,4.38,72.87,36.61,121.27,15.44,23.18,33.53,54,57,40.32q7.09-16.67,19-26.45,33.55,5.33,53.35,48.29m-250.25-327.8c-62.45-82.51-27.65,49.1,3.87,81.83,22.78,23.66,33.83,23.27,56,61.29,27.7,47.48,7.76,68.15,31.79,112.74,11.65,21.62,36.42,61.93,59.26,50.22a90.4,90.4,0,0,1,19-26.16q33.52,4.4,52.8,48.16M2988,612.92c-19.83-42.29-30.85-26-31,6-.14,29.5,31.55,68.73,44.85,86,14.61,19,26.53,27.1,41.81,54.14,23.36,41.37,16.82,75.62,40,114.66,19,32,31.67,44.87,56.47,44.79q7.23-9.17,14.63-18,34.07,3.17,53,49.07m-245.4-349.1c-17.52-36.88-24.68-16.4-24.35,6,.41,27.65,25.1,57.31,36.86,77.67,12.87,22.26,25.13,42.34,38.67,67,20,36.53,26.85,75.75,48,110.83,26.6,44.22,28.58,48.76,58.35,48.31l9.47-11.3q34.56,3.48,52.84,51.63M2935.27,584.67c-16.49-24.17-16.76-12.16-18.43,4.06-2.62,25.46,37,73.22,44.64,91.78,5.87,14.19,7.44,36.17,20.28,60.33,20.48,38.52,39.4,77.24,62.8,112.53,16.06,24.21,27.55,46.79,51.2,51.68q7.1-14.14,17.14-6.31,29.86,7,44.32,53.16M2907.37,567.35q-6.57-12.45-12.54-3.92c10.33,41.53,40.35,73.14,45.37,112.75-.21-1.67-6.61,11.95-5.25,22.12,2.83,21.16,22,47.45,32.12,63,23.55,36.24,52.56,74.71,78.36,107,15.35,19.19,20.37,15.4,32.46,25.49q9.5-7.8,19.08,5.62l35.69,54.09M2879.35,550c-16.1,8.25,41.15,70.72,40.33,92.47-1.58,41.86-28.72,18.69-2.76,74.26,23.54,50.39,68,77.54,98.16,119.75,32.15,45,63.07,68.47,93.29,118.63m-256.5-421c10.92,26.21,44.13,53.92,44.92,87.93,1,43.83-37.15,22.15-11.62,82.09,24.07,56.51,80.09,70,112.81,117.73,30.44,44.4,59.16,85.45,86.05,134.84M2825.59,521.34c15.38,16.79,53.82,49.09,53.46,79.83-.66,56-55.76,20.58-28,91.61,23.36,59.69,85.79,57.68,119.83,101.43,32.08,41.23,64.6,114.9,88.53,164M2801.18,513.18c17.58,16.26,58.92,33.29,59,73.89.06,58.76-65.53,21.31-39.23,95.83,22.36,63.33,96.62,54.81,131.77,99.86,32,41,59.94,126.92,81.71,176.8M2779.32,511.21c14.3,36.12,60.5-4.45,61.81,65.14,1.14,60.48-72.67,22.47-48,99.1,21.24,66.06,104.89,52.3,140.61,98.72,32,41.54,54.8,135.52,75,186.37M2760.67,517c15.73,40.8,58.45-22.53,61.26,53.11,2.28,61.27-76.84,23.77-53.63,101.12,20.49,68.27,109.36,49.89,145.37,98.15,31.33,42,49.61,140.53,68.35,191.75m-27.38,0c-16.91-49.92-33.17-151.17-62.7-192.62-36.16-50.75-125.12-26.09-145.2-97-21.86-77.25,58.82-40.71,55.49-101.79-4.19-76.81-39.86,3.16-57.84-37.25m184.67,428.2c-15.89-50.43-35.78-165.63-69.43-202.42-35.78-39.12-113.83-7.76-130.37-77.36-17.74-74.65,42.16-37.55,52.86-93.8q.11-46.43-25.41-38.84-10.48,32.81-27.46,3.21m-13.05,18.91q16.59,29.57,24.05-4.72,23.34-8.7,21.38,36.85c-10.79,55.42-72.06,20.85-54.21,95.05,17,70.73,92.42,28,128.84,66.18,30.43,31.9,55.36,151.22,69.16,196.07m-200.81-371,13.23,14.89c17.19-45,31.6,17.22,3.27,44.46C2699,669.48,2650.18,691,2692.9,743c32.36,39.4,84.41-5.93,119.52,28.76,27.09,26.76,58.7,147.77,70.86,186.86M2693.9,606.44,2705,624.31q-1.06-21.12,9.13-13.52,19.44,43.83-14.57,62.6c-20.08,19.21-73.13,46.07-29.77,95.26,32.8,37.21,82.66-19.16,118.36,12.86,23.6,21.17,63.36,142.74,74,175.69m-178.7-334.35q10.27,39.81,9.47,9.47c40.33,70.26-129.45,114.13-29.5,166.88q30.61,9.68,59.6-13,54.63-14.49,67.38,66c25.67,40.46,30.09,41.69,51.16,103.46m-168.94-318,6.51,26.48q-2.85-17.29-2.95-.75,13.18,47.3-20.69,65.06c-15.38,14.56-77.75,52.71-33.1,95.87,33.84,32.7,78.93-47.24,116.13-21.22q13.81,49.31,43.33,79.58,36.93,5.66,39.21,71.46m-160.23-303.6,4.42,31.26q-7.43-12.75-8.62,6.5,10.29,48.83-23.68,66.46c-13.21,12.46-79.73,55.74-34.75,96.25,34.2,30.8,77.24-60.82,115.09-37.65q11.92,52.46,44.94,75.92,38.72-8.25,42,63.4M2647.49,661.1l2.69,35.78q-11.59-7.45-13.63,13.28,7.67,50.1-26.48,67.74c-11.44,10.75-81.31,58.43-36.32,96.85,34.38,29.36,75.81-73.26,114.13-52.54q10.47,55.86,46.3,73.07,39.26-19.47,44.34,56.12M2632,668.94q15.75,44.36-7.89,40.88-15.68,25.08-12.87,60.24c-17.08,40.42-84.58,40.45-67.38,102.36,19.84,71.38,79.73-61.74,118.5-43.61q9.19,59.26,47.22,71.5,39.35-28.05,46,50.07M2613.65,673.7q15.89,45.76-9.66,45.37-17.24,25.4-15.85,62.22c-17.73,39.49-85.37,42.1-68.84,103.71,19.41,72.33,78.81-69.36,117.39-52.59q7.75,62.58,47.48,71.64,39.35-34.29,46.63,45.67M2592,675.09q16.44,44-8.33,46.68Q2562.81,739,2568,776.95c-15,37.58-89.5,52.69-78.37,109.82,15.33,78.66,89.54-75.12,128.63-45q1.65,71.2,42.51,62.52,38.52-33.65,43,45.26m-134-271.43q15.23,46.49-11.16,46.94-18.78,24.35-18.69,62.2c-31,62.26-84.75,26-66.38,123.16q43.46-9,71.31-59.4,39.29-46,47,13.9,4.74,40.51,33.94,41.73,40.31-40.35,46.37,42.35M2548.85,684.72q13.06,47.08-13.74,45-20.76,21.65-20.63,60.62c-32.72,61.33-83.41,20-67.69,119.12q40.7-8.74,66.13-56.85,37.31-43.49,42.63,14.57,3.13,41.2,32.85,40.41,41-43.45,47.29,40.1M2528.56,693.85q10,47.8-17.26,41.89-23.37,17.26-23.18,58.07c-34.66,60.06-81.43,13-69.34,114.19q37-8.23,59-53.49,34.57-39.89,37,15.69,1.15,42.27,31.76,38.73,41.73-47.16,48.73,37m-86.7-241.68q6.35,48.23-21.37,38.21-26,11.65-26.13,54.94c-36.94,58.38-79.22,4.67-71.42,108.09,29.15-3.79,47.44-47.62,75.13-61.56q-5.8,70.2,36.79,66.55,42.38-51.22,50.53,33.25"/>
      </g>
    </g>
  </g>
</svg>
