<svg id="Capa_1" data-name="Capa 1" xmlns="http://www.w3.org/2000/svg" xmlns:xlink="http://www.w3.org/1999/xlink" width="20.76cm" height="14.55cm" viewBox="0 0 588.45 412.53">
  <defs>
    <style>
      .cls-1, .cls-6, .cls-8 {
        fill: #fff;
      }

      .cls-2 {
        fill: #00fecf;
      }

      .cls-3 {
        fill: url(#Degradado_sin_nombre_48);
      }

      .cls-4 {
        fill: url(#Degradado_sin_nombre_50);
      }

      .cls-5 {
        fill: url(#Degradado_sin_nombre_46);
      }

      .cls-6 {
        opacity: 0.1;
      }

      .cls-7 {
        fill: url(#linear-gradient);
      }

      .cls-8 {
        opacity: 0.2;
      }

      .cls-9 {
        fill: none;
        stroke: #00fecf;
        stroke-miterlimit: 10;
        stroke-width: 2px;
      }
    </style>
    <linearGradient id="Degradado_sin_nombre_48" data-name="Degradado sin nombre 48" x1="515.76" y1="627.16" x2="468.14" y2="1323.87" gradientTransform="translate(1185.92 -150.52) rotate(90)" gradientUnits="userSpaceOnUse">
      <stop offset="0.01" stop-color="#0fd"/>
      <stop offset="0.13" stop-color="#05f7de"/>
      <stop offset="0.33" stop-color="#13e1e1"/>
      <stop offset="0.58" stop-color="#29bde6"/>
      <stop offset="0.86" stop-color="#488bec"/>
      <stop offset="1" stop-color="#5a6ff0"/>
    </linearGradient>
    <linearGradient id="Degradado_sin_nombre_50" data-name="Degradado sin nombre 50" x1="346.42" y1="615.59" x2="298.79" y2="1312.3" gradientTransform="translate(1185.92 -150.52) rotate(90)" gradientUnits="userSpaceOnUse">
      <stop offset="0.01" stop-color="#0fd"/>
      <stop offset="0.13" stop-color="#0cece0"/>
      <stop offset="0.73" stop-color="#4492eb"/>
      <stop offset="1" stop-color="#5a6ff0"/>
    </linearGradient>
    <linearGradient id="Degradado_sin_nombre_46" data-name="Degradado sin nombre 46" x1="964.13" y1="-478.87" x2="916.51" y2="217.84" gradientTransform="translate(240.57 1266.45) rotate(-90)" gradientUnits="userSpaceOnUse">
      <stop offset="0.01" stop-color="#0fd"/>
      <stop offset="0.19" stop-color="#02fcdd"/>
      <stop offset="0.36" stop-color="#09f1df"/>
      <stop offset="0.52" stop-color="#14dfe1"/>
      <stop offset="0.66" stop-color="#24c6e5"/>
      <stop offset="0.81" stop-color="#38a5e9"/>
      <stop offset="0.95" stop-color="#507eee"/>
      <stop offset="1" stop-color="#5a6ff0"/>
    </linearGradient>
    <linearGradient id="linear-gradient" x1="315.45" y1="562.15" x2="264.1" y2="1313.36" gradientTransform="translate(1185.92 -150.52) rotate(90)" gradientUnits="userSpaceOnUse">
      <stop offset="0.01" stop-color="#0fd"/>
      <stop offset="1" stop-color="#5a6ff0"/>
    </linearGradient>
  </defs>
  <title>estadisticas</title>
  <g>
    <g>
      <path class="cls-1" d="M461.22.15h6.95a5.47,5.47,0,0,1,3.63,1.17,4.73,4.73,0,0,1,1.77,3.8A5,5,0,0,1,470.12,10l4.13,7.9H471l-3.67-7.6h-3.44v7.6h-2.7Zm2.7,7.8H468a2.94,2.94,0,0,0,2.27-.88,2.75,2.75,0,0,0,.74-2,2.37,2.37,0,0,0-.89-2,3.09,3.09,0,0,0-2-.55h-4.22Z"/>
      <path class="cls-1" d="M476.46.15h11.36V2.7h-8.67V7.78h7.4v2.39h-7.4v5.22h8.67v2.55H476.46Z"/>
      <path class="cls-1" d="M488.77.15h2.84l2.8,12.65h0L497.91.15h2l3.44,12.65h0L506.16.15H509l-4.44,17.8H502.3L498.91,5.11h0l-3.41,12.83h-2.25Z"/>
      <path class="cls-1" d="M519.36,14h-6.75l-1.37,4h-2.86L514.85.15h2.26l6.47,17.8h-2.84Zm-.77-2.39L516,3.8h0l-2.58,7.78Z"/>
      <path class="cls-1" d="M525.49.15h6.95a5.47,5.47,0,0,1,3.63,1.17,4.73,4.73,0,0,1,1.77,3.8A5,5,0,0,1,534.39,10l4.13,7.9H535.3l-3.67-7.6h-3.44v7.6h-2.7Zm2.7,7.8h4.08a2.94,2.94,0,0,0,2.27-.88,2.75,2.75,0,0,0,.74-2,2.36,2.36,0,0,0-.89-2,3.1,3.1,0,0,0-2-.55h-4.22Z"/>
      <path class="cls-1" d="M540.73.15H547a6,6,0,0,1,5.42,3,5.36,5.36,0,0,1,.82,2.1,36.24,36.24,0,0,1,.13,3.8,25.88,25.88,0,0,1-.21,4,4.46,4.46,0,0,1-.29,1,9.44,9.44,0,0,1-.5.92,6.47,6.47,0,0,1-5.55,3h-6Zm2.7,15.25h3.22a3.66,3.66,0,0,0,3.3-1.55,3,3,0,0,0,.57-1.45,31,31,0,0,0,.11-3.25q0-2.32-.11-3.32a3.06,3.06,0,0,0-.7-1.62,3.57,3.57,0,0,0-3.17-1.5h-3.22Z"/>
      <path class="cls-1" d="M561.75,15.39q3.47,0,3.52-2.48,0-2-2.32-2.39l-2.36-.33a5.82,5.82,0,0,1-3.49-1.7,4.72,4.72,0,0,1-1.23-3.3,4.87,4.87,0,0,1,1.55-3.76A6.06,6.06,0,0,1,561.68,0a10,10,0,0,1,5.77,1.84L566,4.06a8.16,8.16,0,0,0-4.41-1.37,3.36,3.36,0,0,0-2.08.62,2.31,2.31,0,0,0-.89,1.93,2,2,0,0,0,.6,1.39,3.43,3.43,0,0,0,1.92.88q.73.12,2,.28a5.55,5.55,0,0,1,3.7,1.79A5,5,0,0,1,568,12.92q-.13,5.1-6.25,5.18a10.09,10.09,0,0,1-6.8-2.44l1.77-2A7.81,7.81,0,0,0,561.75,15.39Z"/>
      <path class="cls-2" d="M465.85,37.3h2v5.35h5.35v2h-5.35v5.35h-2V44.6h-5.35v-2h5.35Z"/>
      <path class="cls-1" d="M461.22,64.15h2.54l5.1,11.6,5-11.6h2.55v17.8h-2.7V70.85h-.06l-3.72,8.54h-2.25L464,70.85h0v11.1h-2.7Z"/>
      <path class="cls-1" d="M489.28,78h-6.75l-1.37,4h-2.86l6.47-17.8H487l6.47,17.8h-2.84Zm-.77-2.39-2.58-7.78h0l-2.58,7.78Z"/>
      <path class="cls-1" d="M495.41,64.15h6.95A5.47,5.47,0,0,1,506,65.32a4.73,4.73,0,0,1,1.77,3.8A5,5,0,0,1,504.31,74l4.13,7.9h-3.21l-3.67-7.6h-3.44v7.6h-2.7Zm2.7,7.8h4.08a2.94,2.94,0,0,0,2.27-.88,2.75,2.75,0,0,0,.74-2,2.36,2.36,0,0,0-.89-2,3.1,3.1,0,0,0-2-.55h-4.22Z"/>
      <path class="cls-1" d="M510.65,64.15h2.7v9.17h0l7.32-9.17h3.2l-5.7,7,6.3,10.78h-3.2l-4.85-8.7-3.12,3.28v5.42h-2.7Z"/>
      <path class="cls-1" d="M526.4,64.15h11.36V66.7H529.1v5.08h7.4v2.39h-7.4v5.22h8.67v2.55H526.4Z"/>
      <path class="cls-1" d="M543.32,66.55h-4.87v-2.4H550.9v2.4H546V81.94h-2.71Z"/>
      <path class="cls-1" d="M552.81,64.15h2.7v17.8h-2.7Z"/>
      <path class="cls-1" d="M559.25,64.15h2.54l8.06,12.65h0V64.15h2.7v17.8H570L562,69.3h0V81.94h-2.7Z"/>
      <path class="cls-1" d="M582.13,72.14h6.32v3.63a6.38,6.38,0,0,1-9.85,5.3,6,6,0,0,1-2.08-2.17q-.2-.4-.35-.77a5,5,0,0,1-.24-1,29.77,29.77,0,0,1-.18-4.13,29.71,29.71,0,0,1,.18-4.15,4.92,4.92,0,0,1,.6-1.7A6.3,6.3,0,0,1,582.1,64a6,6,0,0,1,4.2,1.53,6.71,6.71,0,0,1,2.05,3.75H585.5a3.92,3.92,0,0,0-1.2-1.83,3.53,3.53,0,0,0-2.2-.74,3.73,3.73,0,0,0-1.64.38,3.4,3.4,0,0,0-1.12.92,2.94,2.94,0,0,0-.7,1.48,21.24,21.24,0,0,0-.2,3.58,20.75,20.75,0,0,0,.2,3.55,3,3,0,0,0,.7,1.5,3.66,3.66,0,0,0,2.76,1.29,3.44,3.44,0,0,0,2.6-1.07,3.73,3.73,0,0,0,1-2.7v-.93h-3.63Z"/>
    </g>
    <g>
      <g>
        <path class="cls-3" d="M146.11,358.16A109,109,0,0,1,53.94,255.25H0A162.86,162.86,0,0,0,146.11,412.53Z"/>
        <path class="cls-4" d="M146.11,88.5A162.89,162.89,0,0,0,.61,235.36H54.89a109,109,0,0,1,91.22-92.5Z"/>
        <path class="cls-5" d="M185.93,409.72a162.89,162.89,0,0,0,145.5-146.86H277.14a109,109,0,0,1-91.22,92.5Z"/>
        <path class="cls-6" d="M164.77,62.75v67.32A135.23,135.23,0,0,1,280.49,245.23h67.36A202.12,202.12,0,0,0,164.77,62.75Z"/>
        <path class="cls-7" d="M199.29,60.08v58.5A117.5,117.5,0,0,1,299.84,218.63h58.53A175.62,175.62,0,0,0,199.29,60.08Z"/>
        <path class="cls-8" d="M162.75,119.35A131.15,131.15,0,1,0,293.9,250.51,131.15,131.15,0,0,0,162.75,119.35Zm0,218.87a87.72,87.72,0,1,1,87.72-87.72A87.72,87.72,0,0,1,162.75,338.22Z"/>
      </g>
      <g>
        <path class="cls-2" d="M136.82,243.23h1.73a5.38,5.38,0,0,0,4-1.41,4.71,4.71,0,0,0,1.41-3.55,5.07,5.07,0,0,0-1.46-3.62,5.2,5.2,0,0,0-3.64-1.41,4.63,4.63,0,0,0-2.92,1,5.18,5.18,0,0,0-1.87,3.19h-5a10.2,10.2,0,0,1,3.14-6.54,9.13,9.13,0,0,1,6.47-2.68,9.87,9.87,0,0,1,10.3,9.94,10.72,10.72,0,0,1-.72,3.88,8.13,8.13,0,0,1-3,3.33,8.71,8.71,0,0,1,3.19,3.45,9.9,9.9,0,0,1,.93,4.22,10.28,10.28,0,0,1-3,7.74,10.51,10.51,0,0,1-7.57,2.95,9.58,9.58,0,0,1-6.33-2.3,10.93,10.93,0,0,1-3.57-6.66h5a7.05,7.05,0,0,0,1.89,2.83,4.74,4.74,0,0,0,3.31,1.13,5,5,0,0,0,3.71-1.51,5.34,5.34,0,0,0,1.58-4,5.57,5.57,0,0,0-1.58-4.12,5.39,5.39,0,0,0-3.83-1.41h-2.11Z"/>
        <path class="cls-2" d="M160.37,243.23h1.72a5.38,5.38,0,0,0,4-1.41,4.71,4.71,0,0,0,1.41-3.55,5.07,5.07,0,0,0-1.46-3.62,5.2,5.2,0,0,0-3.64-1.41,4.63,4.63,0,0,0-2.92,1,5.18,5.18,0,0,0-1.87,3.19h-5a10.2,10.2,0,0,1,3.14-6.54,9.13,9.13,0,0,1,6.47-2.68,9.87,9.87,0,0,1,10.3,9.94,10.73,10.73,0,0,1-.72,3.88,8.14,8.14,0,0,1-3,3.33,8.71,8.71,0,0,1,3.19,3.45,9.9,9.9,0,0,1,.93,4.22,10.28,10.28,0,0,1-3,7.74,10.51,10.51,0,0,1-7.57,2.95,9.58,9.58,0,0,1-6.33-2.3,10.94,10.94,0,0,1-3.57-6.66h5a7.05,7.05,0,0,0,1.89,2.83,4.74,4.74,0,0,0,3.31,1.13,5,5,0,0,0,3.71-1.51,5.34,5.34,0,0,0,1.58-4,5.57,5.57,0,0,0-1.58-4.12,5.39,5.39,0,0,0-3.83-1.41h-2.11Z"/>
        <path class="cls-2" d="M177.79,233.07a4.47,4.47,0,0,1,4.62-4.84,4.93,4.93,0,0,1,3.23,1.13,4.87,4.87,0,0,1,1.37,3.71v3.35a6.11,6.11,0,0,1-.34,2.16,3.4,3.4,0,0,1-1,1.51,4.8,4.8,0,0,1-3.23,1.17,4.56,4.56,0,0,1-3.14-1.17,4.49,4.49,0,0,1-1.49-3.67Zm16.89-4.55h3.23l-16.53,34.93h-3.23Zm-14.09,7.55q0,2.42,1.82,2.42t1.82-2.42v-2.64q0-2.42-1.82-2.42t-1.82,2.42ZM189,255.54a4.47,4.47,0,0,1,4.62-4.84,4.92,4.92,0,0,1,3.23,1.13,4.87,4.87,0,0,1,1.37,3.71v3.35a6.11,6.11,0,0,1-.34,2.16,3.41,3.41,0,0,1-1,1.51,4.8,4.8,0,0,1-3.23,1.17,4.56,4.56,0,0,1-3.14-1.17A4.49,4.49,0,0,1,189,258.9Zm2.8,3q0,2.42,1.82,2.42t1.82-2.42V255.9q0-2.42-1.82-2.42t-1.82,2.42Z"/>
      </g>
    </g>
    <g>
      <path class="cls-9" d="M292.47,137.24h12.26a23.42,23.42,0,0,0,23.42-23.42V45.2A37.49,37.49,0,0,1,365.65,7.7h70.79"/>
      <circle class="cls-2" cx="436.44" cy="7.7" r="5.59"/>
      <circle class="cls-2" cx="292.47" cy="137.24" r="5.59"/>
    </g>
  </g>
</svg>
