<svg xmlns="http://www.w3.org/2000/svg" xmlns:xlink="http://www.w3.org/1999/xlink" viewBox="0 0 545.02 336"><defs><style>.cls-1,.cls-8{fill:#fff;}.cls-1{opacity:0.05;}.cls-2,.cls-3,.cls-4,.cls-5,.cls-6{fill:none;stroke-miterlimit:10;}.cls-2{stroke:#00fecf;stroke-width:2px;}.cls-3,.cls-4,.cls-6{stroke:#fff;}.cls-3,.cls-4,.cls-5{stroke-width:20px;}.cls-4{stroke-dasharray:2.08 2.08;}.cls-5{stroke-dasharray:2.08;stroke:url(#linear-gradient);}.cls-6{stroke-width:6px;stroke-dasharray:6;opacity:0.2;}.cls-7,.cls-9{fill:#00fecf;}.cls-8{font-size:25px;}.cls-8,.cls-9{font-family:DINAlternate-Bold, DIN Alternate;font-weight:700;}.cls-9{font-size:49.07px;}</style><linearGradient id="linear-gradient" x1="296.33" y1="313.64" x2="475.47" y2="313.64" gradientTransform="matrix(-0.97, -0.22, -0.22, 0.97, 764.48, -63.48)" gradientUnits="userSpaceOnUse"><stop offset="0.01" stop-color="#0fd"/><stop offset="1" stop-color="#5a6ff0"/></linearGradient></defs><g id="Capa_2" data-name="Capa 2"><g id="Capa_6" data-name="Capa 6"><circle class="cls-1" cx="377.02" cy="168" r="168"/><circle class="cls-2" cx="377.02" cy="168" r="116.85"/><path class="cls-3" d="M373.24,307.6l1,0"/><path class="cls-4" d="M376.36,307.66a139.66,139.66,0,0,0,7.72-279.13"/><path class="cls-3" d="M383,28.48l-1,0"/><path class="cls-5" d="M382,28.44a139.65,139.65,0,1,0-8.76,279.16"/><circle class="cls-6" cx="377.02" cy="168" r="94.9"/><path class="cls-2" d="M237.56,168.31H225.3a23.42,23.42,0,0,0-23.42,23.43v68.61a37.5,37.5,0,0,1-37.5,37.5H93.59"/><path class="cls-7" d="M88,297.85a5.59,5.59,0,1,1,5.59,5.59A5.59,5.59,0,0,1,88,297.85Z"/><path class="cls-7" d="M232,168.31a5.59,5.59,0,1,1,5.59,5.59A5.59,5.59,0,0,1,232,168.31Z"/><text class="cls-8" transform="translate(0 309.69)">PUBLIC</text><text class="cls-9" transform="translate(343.09 182.11)">50%</text></g></g></svg>