<svg id="Capa_1" data-name="Capa 1" xmlns="http://www.w3.org/2000/svg" xmlns:xlink="http://www.w3.org/1999/xlink" width="17.84cm" height="15.2cm" viewBox="0 0 505.78 430.88">
  <defs>
    <style>
      .cls-1 {
        fill: none;
        stroke: #00fecf;
        stroke-miterlimit: 10;
        stroke-width: 2px;
      }

      .cls-2 {
        fill: #00fecf;
      }

      .cls-3 {
        fill: url(#linear-gradient);
      }

      .cls-4, .cls-7 {
        fill: #fff;
      }

      .cls-4 {
        opacity: 0.2;
      }

      .cls-5 {
        fill: url(#Degradado_sin_nombre_35);
      }

      .cls-6 {
        fill: url(#linear-gradient-2);
      }
    </style>
    <linearGradient id="linear-gradient" x1="279.17" y1="269.42" x2="279.17" y2="228.73" gradientUnits="userSpaceOnUse">
      <stop offset="0.01" stop-color="#0fd"/>
      <stop offset="1" stop-color="#5a6ff0"/>
    </linearGradient>
    <linearGradient id="Degradado_sin_nombre_35" data-name="Degradado sin nombre 35" x1="150.25" y1="218.54" x2="150.25" y2="184.76" gradientUnits="userSpaceOnUse">
      <stop offset="0.01" stop-color="#0fd"/>
      <stop offset="0.09" stop-color="#14dfe1"/>
      <stop offset="0.21" stop-color="#29bde6"/>
      <stop offset="0.33" stop-color="#3ba0e9"/>
      <stop offset="0.46" stop-color="#498bec"/>
      <stop offset="0.6" stop-color="#537bee"/>
      <stop offset="0.77" stop-color="#5872f0"/>
      <stop offset="1" stop-color="#5a6ff0"/>
    </linearGradient>
    <linearGradient id="linear-gradient-2" x1="150.75" y1="269.42" x2="150.75" y2="214.73" xlink:href="#linear-gradient"/>
  </defs>
  <title>estadisticas</title>
  <g>
    <rect class="cls-1" x="109.96" y="39.52" width="79.25" height="255.25"/>
    <rect class="cls-1" x="238.88" y="39.52" width="79.25" height="255.25"/>
    <g>
      <path class="cls-2" d="M118.72,5.64V2.39l3-2.21h3.06V21.53h-3.06V3.41Z"/>
      <path class="cls-2" d="M131.48,6.14a5.76,5.76,0,0,1,1.89-4.56A6,6,0,0,1,137.53,0a6.07,6.07,0,0,1,4.23,1.58,6,6,0,0,1,1.83,4.56v9.42a6,6,0,0,1-1.83,4.54,6.19,6.19,0,0,1-4.23,1.61,6.1,6.1,0,0,1-4.16-1.61,5.74,5.74,0,0,1-1.89-4.54Zm9.05.19q-.09-3.21-3-3.27t-3,3.27v9.05q.06,3.24,3,3.27t3-3.27Z"/>
      <path class="cls-2" d="M146.8,18.47h3.06v3.06H146.8Z"/>
      <path class="cls-2" d="M153.45.18h12.16V3.24l-7.24,18.3H155l7.22-18.3h-5.67V6.33h-3.06Z"/>
      <path class="cls-2" d="M167.85,3a2.84,2.84,0,0,1,.91-2.27A2.85,2.85,0,0,1,170.68,0a3,3,0,0,1,2,.69A3,3,0,0,1,173.49,3V5a3.74,3.74,0,0,1-.21,1.32,2.08,2.08,0,0,1-.63.92,2.94,2.94,0,0,1-2,.72,2.78,2.78,0,0,1-1.92-.72A2.74,2.74,0,0,1,167.85,5ZM178.18.18h2L170.05,21.53h-2Zm-8.61,4.61q0,1.48,1.11,1.48t1.11-1.48V3.18q0-1.48-1.11-1.48t-1.11,1.48Zm5.16,11.91a2.73,2.73,0,0,1,2.83-3,3,3,0,0,1,2,.69,3,3,0,0,1,.84,2.27v2.05a3.74,3.74,0,0,1-.21,1.32,2.09,2.09,0,0,1-.63.92,2.93,2.93,0,0,1-2,.72,2.79,2.79,0,0,1-1.92-.72,2.74,2.74,0,0,1-.91-2.24Zm1.71,1.83q0,1.48,1.11,1.48t1.11-1.48V16.92q0-1.48-1.11-1.48t-1.11,1.48Z"/>
    </g>
    <g>
      <path class="cls-2" d="M251.78,15.29a5.57,5.57,0,0,1,2.52-4.8,6.26,6.26,0,0,1-1.49-1.92,4.45,4.45,0,0,1-.63-2.4A6,6,0,0,1,254,1.76,5.82,5.82,0,0,1,258.29,0a6,6,0,0,1,4.38,1.76,6.13,6.13,0,0,1,1.74,4.41,4.8,4.8,0,0,1-.57,2.4,7.16,7.16,0,0,1-1.55,1.92,5.57,5.57,0,0,1,2.52,4.8,6.09,6.09,0,0,1-1.89,4.61,6.62,6.62,0,0,1-4.63,1.8,6.39,6.39,0,0,1-4.55-1.8A6,6,0,0,1,251.78,15.29Zm3.06,0a3.2,3.2,0,0,0,1.05,2.4,3.25,3.25,0,0,0,2.39,1,3.3,3.3,0,0,0,2.43-1,3.25,3.25,0,0,0,1-2.4,3.28,3.28,0,0,0-1-2.43,3.52,3.52,0,0,0-2.43-1,3.46,3.46,0,0,0-2.39,1A3.23,3.23,0,0,0,254.85,15.26Zm.39-9.16a2.86,2.86,0,0,0,1,2.26,3.06,3.06,0,0,0,2.09.81,3.12,3.12,0,0,0,2.14-.81,2.91,2.91,0,0,0,.92-2.26,3,3,0,0,0-.92-2.3,3.26,3.26,0,0,0-2.14-.75,3.2,3.2,0,0,0-2.09.75A2.91,2.91,0,0,0,255.24,6.11Z"/>
      <path class="cls-2" d="M267.56,18.47h3.06v3.06h-3.06Z"/>
      <path class="cls-2" d="M278,9.17H279a3.29,3.29,0,0,0,2.43-.86,2.88,2.88,0,0,0,.86-2.17,3.1,3.1,0,0,0-.89-2.21,3.18,3.18,0,0,0-2.23-.86,2.83,2.83,0,0,0-1.79.63,3.17,3.17,0,0,0-1.14,1.95H273.2a6.24,6.24,0,0,1,1.92-4,5.58,5.58,0,0,1,4-1.64,6,6,0,0,1,6.3,6.08,6.55,6.55,0,0,1-.44,2.37,5,5,0,0,1-1.83,2,5.33,5.33,0,0,1,1.95,2.11,6.05,6.05,0,0,1,.57,2.58,6.28,6.28,0,0,1-1.86,4.73,6.42,6.42,0,0,1-4.63,1.8,5.86,5.86,0,0,1-3.87-1.41,6.69,6.69,0,0,1-2.18-4.07h3.06A4.3,4.3,0,0,0,277.3,18a2.9,2.9,0,0,0,2,.69,3.09,3.09,0,0,0,2.27-.92,3.27,3.27,0,0,0,1-2.46,3.41,3.41,0,0,0-1-2.52,3.29,3.29,0,0,0-2.34-.86H278Z"/>
      <path class="cls-2" d="M288.61,3a2.84,2.84,0,0,1,.91-2.27A2.86,2.86,0,0,1,291.44,0a3,3,0,0,1,2,.69A3,3,0,0,1,294.25,3V5A3.74,3.74,0,0,1,294,6.33a2.09,2.09,0,0,1-.63.92,2.93,2.93,0,0,1-2,.72,2.79,2.79,0,0,1-1.92-.72A2.74,2.74,0,0,1,288.61,5ZM298.94.18h2L290.81,21.53h-2Zm-8.61,4.61q0,1.48,1.11,1.48t1.11-1.48V3.18q0-1.48-1.11-1.48t-1.11,1.48Zm5.16,11.91a2.73,2.73,0,0,1,2.83-3,3,3,0,0,1,2,.69,3,3,0,0,1,.83,2.27v2.05a3.74,3.74,0,0,1-.21,1.32,2.08,2.08,0,0,1-.63.92,2.94,2.94,0,0,1-2,.72,2.78,2.78,0,0,1-1.92-.72,2.74,2.74,0,0,1-.91-2.24Zm1.71,1.83q0,1.48,1.11,1.48t1.11-1.48V16.92q0-1.48-1.11-1.48t-1.11,1.48Z"/>
    </g>
    <rect class="cls-3" x="252.32" y="228.73" width="53.69" height="40.69"/>
    <rect class="cls-4" x="252.32" y="53.36" width="53.69" height="163.99"/>
    <rect class="cls-4" x="122.93" y="53.36" width="53.69" height="126.89"/>
    <rect class="cls-5" x="123.4" y="192.7" width="53.69" height="7.69"/>
    <rect class="cls-6" x="123.91" y="214.73" width="53.69" height="54.69"/>
    <g>
      <path class="cls-1" d="M18.79,393.15V380.89a23.42,23.42,0,0,1,23.42-23.42h68.62A37.49,37.49,0,0,0,148.33,320V249.18"/>
      <circle class="cls-2" cx="148.33" cy="249.18" r="5.59"/>
      <circle class="cls-2" cx="18.79" cy="393.15" r="5.59"/>
    </g>
    <g>
      <path class="cls-1" d="M281.36,251.4h12.26A23.42,23.42,0,0,1,317,274.82v68.62a37.49,37.49,0,0,0,37.49,37.49h70.79"/>
      <circle class="cls-2" cx="425.33" cy="380.94" r="5.59"/>
      <circle class="cls-2" cx="281.36" cy="251.4" r="5.59"/>
    </g>
    <g>
      <path class="cls-7" d="M449.1,371.16h6.45a10.34,10.34,0,0,1,2,.2,5.46,5.46,0,0,1,2,1,4.27,4.27,0,0,1,1.37,1.71,5.5,5.5,0,0,1,.55,2.54,5.41,5.41,0,0,1-1.39,3.6A5.26,5.26,0,0,1,455.9,382h-4.1V389h-2.7Zm2.7,8.3h4a2.84,2.84,0,0,0,2.26-.93,3,3,0,0,0,.72-2,3.45,3.45,0,0,0-.29-1.5,2.25,2.25,0,0,0-.85-.87,3.39,3.39,0,0,0-1.93-.5H451.8Z"/>
      <path class="cls-7" d="M463.31,380.06a29.68,29.68,0,0,1,.18-4.15,4.93,4.93,0,0,1,.6-1.7,6.3,6.3,0,0,1,5.58-3.2,6.23,6.23,0,0,1,3.54,1,6,6,0,0,1,2,2.2,4.08,4.08,0,0,1,.62,1.7,53.87,53.87,0,0,1,0,8.28,4.11,4.11,0,0,1-.62,1.72,5.8,5.8,0,0,1-2,2.17,6.35,6.35,0,0,1-3.54,1,6.25,6.25,0,0,1-3.5-1,6,6,0,0,1-2.08-2.17q-.19-.4-.35-.77a5,5,0,0,1-.24-1A29.75,29.75,0,0,1,463.31,380.06Zm2.71,0a20.7,20.7,0,0,0,.2,3.55,3,3,0,0,0,.7,1.5,3.66,3.66,0,0,0,2.76,1.29,3.33,3.33,0,0,0,1.67-.4,3,3,0,0,0,1.07-.89,3.13,3.13,0,0,0,.72-1.5,22.15,22.15,0,0,0,.18-3.55,22.67,22.67,0,0,0-.18-3.58,3.11,3.11,0,0,0-.72-1.48,3.23,3.23,0,0,0-1.07-.92,4,4,0,0,0-1.67-.38,3.74,3.74,0,0,0-1.64.38,3.41,3.41,0,0,0-1.12.92,2.94,2.94,0,0,0-.7,1.48A21.18,21.18,0,0,0,466,380.06Z"/>
      <path class="cls-7" d="M478.56,380.06a29.89,29.89,0,0,1,.18-4.15,4.93,4.93,0,0,1,.6-1.7,6.3,6.3,0,0,1,5.58-3.2,6.22,6.22,0,0,1,3.54,1,6,6,0,0,1,2,2.2,4.1,4.1,0,0,1,.62,1.7,53.87,53.87,0,0,1,0,8.28,4.12,4.12,0,0,1-.62,1.72,5.8,5.8,0,0,1-2,2.17,6.35,6.35,0,0,1-3.54,1,6.25,6.25,0,0,1-3.5-1,6,6,0,0,1-2.08-2.17q-.19-.4-.35-.77a5,5,0,0,1-.24-1A30,30,0,0,1,478.56,380.06Zm2.71,0a20.7,20.7,0,0,0,.2,3.55,3,3,0,0,0,.7,1.5,3.66,3.66,0,0,0,2.76,1.29,3.33,3.33,0,0,0,1.67-.4,3,3,0,0,0,1.07-.89,3.14,3.14,0,0,0,.72-1.5,22.27,22.27,0,0,0,.18-3.55,22.8,22.8,0,0,0-.18-3.58,3.12,3.12,0,0,0-.72-1.48,3.22,3.22,0,0,0-1.07-.92,3.94,3.94,0,0,0-1.67-.38,3.75,3.75,0,0,0-1.64.38,3.42,3.42,0,0,0-1.12.92,2.94,2.94,0,0,0-.7,1.48A21.18,21.18,0,0,0,481.27,380.06Z"/>
      <path class="cls-7" d="M494.42,371.16h2.7v15.25h8.67V389H494.42Z"/>
    </g>
    <g>
      <path class="cls-7" d="M4.87,415.48H0v-2.41H12.45v2.41H7.58v15.39H4.87Z"/>
      <path class="cls-7" d="M14.36,413.08H25.72v2.55H17.05v5.08h7.4v2.39h-7.4v5.22h8.67v2.55H14.36Z"/>
      <path class="cls-7" d="M37.38,426.9H30.63l-1.37,4H26.4l6.47-17.8h2.26l6.47,17.8H38.76Zm-.77-2.39L34,416.73h0l-2.58,7.78Z"/>
      <path class="cls-7" d="M43.51,413.08H46l5.1,11.6,5-11.6H58.7v17.8H56v-11.1h-.06l-3.72,8.54H50l-3.72-8.54h0v11.1h-2.7Z"/>
    </g>
  </g>
</svg>
