<svg xmlns="http://www.w3.org/2000/svg" xmlns:xlink="http://www.w3.org/1999/xlink" width="697.9" height="1116.09" viewBox="0 0 697.9 1116.09">
  <defs>
    <style>
      .cls-1, .cls-8 {
        fill: none;
      }

      .cls-2 {
        clip-path: url(#clip-path);
      }

      .cls-3 {
        clip-path: url(#clip-path-2);
      }

      .cls-4 {
        clip-path: url(#clip-path-3);
      }

      .cls-5 {
        clip-path: url(#clip-path-4);
      }

      .cls-6 {
        clip-path: url(#clip-path-5);
      }

      .cls-7 {
        fill: #00fecf;
      }

      .cls-8 {
        font-size: 33.9px;
        stroke: #fff;
        stroke-miterlimit: 10;
        font-family: DINAlternate-Bold, DIN Alternate;
        font-weight: 700;
        letter-spacing: 0.05em;
      }
    </style>
    <clipPath id="clip-path" transform="translate(-43.15 -36.91)">
      <rect class="cls-1" x="96.31" width="593.54" height="1163.3"/>
    </clipPath>
    <clipPath id="clip-path-2" transform="translate(-43.15 -36.91)">
      <polygon class="cls-1" points="577.08 673.8 648.02 471.02 588.87 313.1 779.3 297.31 784.21 506.2 686.94 675.01 577.08 673.8"/>
    </clipPath>
    <clipPath id="clip-path-3" transform="translate(-43.15 -36.91)">
      <polygon class="cls-1" points="577.08 1173.03 648.02 970.25 588.87 812.34 779.3 796.55 784.21 1005.43 686.94 1174.24 577.08 1173.03"/>
    </clipPath>
    <clipPath id="clip-path-4" transform="translate(-43.15 -36.91)">
      <polygon class="cls-1" points="207.13 516.11 136.19 718.89 195.34 876.8 4.91 892.59 0 683.71 97.27 514.89 207.13 516.11"/>
    </clipPath>
    <clipPath id="clip-path-5" transform="translate(-43.15 -36.91)">
      <polygon class="cls-1" points="207.13 16.88 136.19 219.66 195.34 377.57 4.91 393.36 0 184.47 97.27 15.66 207.13 16.88"/>
    </clipPath>
  </defs>
  <title>Recurso 24</title>
  <g id="Capa_2" data-name="Capa 2">
    <g id="Capa_6" data-name="Capa 6">
      <g class="cls-2">
        <g>
          <g class="cls-3">
            <path class="cls-1" d="M448.2,466.59c0-103.38,67.8-187.18,151.43-187.18s141.43,83.8,141.43,187.18-57.8,187.18-141.43,187.18S448.2,570,448.2,466.59Z" transform="translate(-43.15 -36.91)"/>
          </g>
          <g class="cls-4">
            <path class="cls-1" d="M448.2,965.82c0-103.38,67.8-187.18,151.43-187.18s141.43,83.8,141.43,187.18S683.26,1153,599.63,1153,448.2,1069.2,448.2,965.82Z" transform="translate(-43.15 -36.91)"/>
          </g>
          <g class="cls-5">
            <path class="cls-1" d="M336,723.32c0,103.38-67.8,187.18-151.43,187.18S43.15,826.7,43.15,723.32s57.8-187.18,141.43-187.18S336,619.94,336,723.32Z" transform="translate(-43.15 -36.91)"/>
          </g>
          <g class="cls-6">
            <path class="cls-1" d="M336,224.09c0,103.38-67.8,187.18-151.43,187.18S43.15,327.46,43.15,224.09,100.95,36.91,184.58,36.91,336,120.71,336,224.09Z" transform="translate(-43.15 -36.91)"/>
          </g>
          <g>
            <path class="cls-7" d="M605.61,345.11c-53.74,3.33-62,4.56-115.75,5.18-26.87.23,25.82.51-1-.12s-31-1.61-57.88-2.45c-26.87-1-19.64-1.28-46.51-1.19-13.43,0-15.5.21-28.94.42l-40.3,1c-26.87.73-31,1.69-57.88,2.19s-53.74.7-80.61,1l-3.23,0-1.33-4.16-10.07-31.53c-3.35-10.51-6.74-21-10-31.56l-9.9-31.63q-5-15.8-9.81-31.68l-.88-2.89.88-2.75c6.71-21,13.32-42.1,20.12-63.07s13.52-42,20.41-62.9L174,85.56l2.66.07,33.82.87,33.82,1.08q16.91.57,33.82,1.38c11.27.51,22.55,1,33.82,1.66.28,0,.49.34.48.71A.62.62,0,0,1,312,92c-11.27.68-22.55,1.15-33.82,1.66s-22.55,1-33.82,1.38l-33.82,1.09L176.69,97l3.82-3.45c-6.28,21.27-12.72,42.45-19.1,63.66s-12.93,42.33-19.38,63.5V215q5,15.76,9.95,31.6l9.85,31.65c3.31,10.54,6.5,21.14,9.74,31.72l9.69,31.75-4.56-4.12c26.87.33,53.74.54,80.61,1s31,1.46,57.88,2.19l40.3,1c13.43.22,15.5.41,28.94.42,26.87.08,19.64-.18,46.51-1.19,26.87-.84,31-1.81,57.88-2.45s-25.82-.34,1-.12c53.74.62,62,1.85,115.75,5.18.28,0,.49.34.48.71A.62.62,0,0,1,605.61,345.11Z" transform="translate(-43.15 -36.91)"/>
            <path class="cls-7" d="M430.9,343.7c26.87-1.44,31-2.45,57.88-3.17s-25.82-1.31,1-1.65q20.15-.35,40.3-.42c13.43-.06-18.59-.26-5.16-.19q40.3,0,80.61,1.18l2.46.07.87,2.93,18.85,63.81,9.42,31.91c3.11,10.65,6.37,21.22,9.55,31.83l.3,1-.3.91q-5.11,15.72-10.06,31.54c-3.31,10.54-6.69,21-9.93,31.61l-9.81,31.68-9.68,31.76-.45,1.48-1.22,0L525,601.75c-26.87.69-8.28,1.37-35.15,1.68l-1,.83c-26.87.24-31,.6-57.88.53-53.74.07-62-.6-115.75-1.61-26.87-.44-31-1.28-57.88-2l-20.15-.56L217,599.85c-13.43-.51-26.87-1-40.3-1.66-.28,0-.49-.33-.48-.71a.62.62,0,0,1,.48-.66c13.43-.68,26.87-1.15,40.3-1.66l20.15-.76,20.15-.56c26.87-.73,31-1.57,57.88-2,53.74-1,62-1.68,115.75-1.61,26.87-.07,31,.29,57.88.53l1,.83c26.87.3,8.28,1,35.15,1.68L605.58,595l-1.67,1.5L614,565l9.95-31.6c3.34-10.52,6.54-21.12,9.82-31.67s6.52-21.13,9.7-31.74v1.9c-3.4-10.48-6.73-21-10.21-31.45l-10.34-31.37-20.66-62.75,3.33,3q-40.3,1.2-80.61,1.18c-13.43.07,18.59-.14,5.16-.19s-26.87-.19-40.3-.42c-26.87-.34,25.82-.89-1-1.65s-31-1.73-57.88-3.17c-.28,0-.49-.33-.48-.71A.62.62,0,0,1,430.9,343.7Z" transform="translate(-43.15 -36.91)"/>
            <path class="cls-7" d="M605.61,851.26c-53.74,2.83-62,4.05-115.75,4.83-13.43.23-4.14.35-17.57.42s30,.26,16.52.19c-26.87,0-31-.38-57.88-1.18l-46.51-2.17c-26.87-.53-42.37-.82-69.24-.66s-31,.56-57.88,1.18l-80.61,1.93-2.46.06-1.06-3.24q-10.25-31.42-20.31-63l-20.09-63.08-.8-2.52.8-2.63L152.19,658l9.73-31.73,9.86-31.65,1.37-4.41,3.53,0c26.87-.14,53.74.22,80.61.4l40.3.53,17.57.68c26.87.44,42.37,1.28,69.24,2l20.15.56-13.95.76c13.43.51,26.87,1,40.3,1.66.28,0,.49.33.48.71a.62.62,0,0,1-.48.66c-13.43.68-26.87,1.15-40.3,1.66l13.95.76-20.15.56c-26.87.73-42.37,1.57-69.24,2l-17.57.68-40.3.53c-26.87.17-53.74.54-80.61.4l4.91-4.43-9.9,31.63-10,31.56L141.6,726.59v-5.15L161,784.92q9.67,31.76,19.19,63.61l-3.52-3.18,80.61,1.93c26.87.62,31,1.16,57.88,1.18s42.37-.13,69.24-.66l46.51-2.17c26.87-.8,31-1.2,57.88-1.18,13.43-.07-30,.14-16.52.19s4.14.19,17.57.42c53.74.77,62,2,115.75,4.83.28,0,.49.33.48.71A.62.62,0,0,1,605.61,851.26Z" transform="translate(-43.15 -36.91)"/>
            <path class="cls-7" d="M430.9,850.38c26.87-2,31-3.11,57.88-3.94s-25.82-1.24,1-1.45,8.28.27,35.15,1.39,53.74,2.29,80.61,2.51h1.06l.4,1.31c3.25,10.57,6.47,21.16,9.83,31.67s6.64,21.06,10.05,31.54,6.81,21,10.29,31.4l10.39,31.34.45,1.37-.45,1.56c-6.22,21.31-12.33,42.68-18.63,63.94s-12.68,42.47-19.12,63.65l-1.16,3.82-3.12,0-40.3.53c-13.43.14-26.87.44-40.3.39-26.87.16,3.09-.2-23.78-.61-53.74-1-209.77-2.56-263.51-6-.28,0-.49-.34-.48-.71a.62.62,0,0,1,.48-.65c53.74-3.42,209.77-5,263.51-6,26.87-.4-3.09-.76,23.78-.61,13.43-.05,26.87.24,40.3.39l40.3.53-4.28,3.86q10.1-31.51,20.39-62.91c6.87-20.93,13.93-41.75,20.88-62.63v2.93l-9.36-31.94q-4.66-16-9.46-31.88c-3.17-10.62-6.43-21.18-9.7-31.74s-6.59-21.09-9.93-31.61l1.46,1.32c-26.87.22-53.74,1.5-80.61,2.51s-8.28,1.6-35.15,1.39,25.82-.57-1-1.45-31-1.94-57.88-3.94c-.28,0-.49-.34-.47-.72A.62.62,0,0,1,430.9,850.38Z" transform="translate(-43.15 -36.91)"/>
          </g>
          <text class="cls-8" transform="translate(72.2 76.61)">Q1</text>
          <text class="cls-8" transform="translate(72.2 581.27)">Q3</text>
          <text class="cls-8" transform="translate(583.79 332.17)">Q2</text>
          <text class="cls-8" transform="translate(583.79 838.93)">Q4</text>
        </g>
      </g>
    </g>
  </g>
</svg>
