<?xml version="1.0" encoding="utf-8"?>
<!-- Generator: Adobe Illustrator 21.0.2, SVG Export Plug-In . SVG Version: 6.00 Build 0)  -->
<svg version="1.1" id="Capa_1" xmlns="http://www.w3.org/2000/svg" xmlns:xlink="http://www.w3.org/1999/xlink" x="0px" y="0px"
	 viewBox="0 0 956.8 781.9" style="enable-background:new 0 0 956.8 781.9;" xml:space="preserve">
<style type="text/css">
	.st0{opacity:0.3;clip-path:url(#SVGID_2_);}
	.st1{opacity:0.3;clip-path:url(#SVGID_4_);}
	.st2{opacity:0.3;clip-path:url(#SVGID_6_);}
	.st3{opacity:0.3;clip-path:url(#SVGID_8_);}
	.st4{fill:#00FECF;}
	.st5{fill:none;stroke:#FFFFFF;stroke-width:2;stroke-miterlimit:10;}
	.st6{font-family:'DINAlternate-Bold';}
	.st7{font-size:65px;}
	.st8{letter-spacing:3;}
</style>
<g>
	<g>
		<defs>
			<path id="SVGID_1_" d="M805.6,393.1l38.1-93.3l-38.9-87.6l-5-5.4L789,177.3c0,0,97.5,1.9,99.5,45.7c0,0,43.2,138.1-11.3,170.6
				C877.2,393.7,773.7,450.9,805.6,393.1z"/>
		</defs>
		<clipPath id="SVGID_2_">
			<use xlink:href="#SVGID_1_"  style="overflow:visible;"/>
		</clipPath>
		<g class="st0">
			
				<image style="overflow:visible;" width="230" height="260" xlink:href="828BC9FB522B88F5.png"  transform="matrix(1 0 0 1 672 169.8667)">
			</image>
		</g>
	</g>
</g>
<g>
	<defs>
		<path id="SVGID_3_" d="M802.1,753.1L843,661l-36.1-88.7l-4.8-5.6l-9.9-29.9c0,0,97.4,4.9,98,48.8c0,0,38.9,139.3-16.5,170.2
			C873.6,755.8,768.4,809.8,802.1,753.1z"/>
	</defs>
	<clipPath id="SVGID_4_">
		<use xlink:href="#SVGID_3_"  style="overflow:visible;"/>
	</clipPath>
	<g class="st1">
		
			<image style="overflow:visible;" width="229" height="261" xlink:href="828BC9FB522B88F7.png"  transform="matrix(1 0 0 1 672 528.8667)">
		</image>
	</g>
</g>
<g>
	<g>
		<defs>
			<path id="SVGID_5_" d="M139.3,389.7L101.2,483l38.9,87.6l5,5.4l10.9,29.6c0,0-97.5-1.9-99.5-45.7c0,0-43.2-138.1,11.3-170.6
				C67.7,389.2,171.2,332,139.3,389.7z"/>
		</defs>
		<clipPath id="SVGID_6_">
			<use xlink:href="#SVGID_5_"  style="overflow:visible;"/>
		</clipPath>
		<g class="st2">
			
				<image style="overflow:visible;" width="229" height="261" xlink:href="828BC9FB522B88F2.png"  transform="matrix(1 0 0 1 43.1648 352.4484)">
			</image>
		</g>
	</g>
</g>
<g>
	<defs>
		<path id="SVGID_7_" d="M143.1,28.2l-38.1,93.3l38.9,87.6l5,5.4l10.9,29.6c0,0-97.5-1.9-99.5-45.7c0,0-43.2-138.1,11.3-170.6
			C71.5,27.6,175.1-29.6,143.1,28.2z"/>
	</defs>
	<clipPath id="SVGID_8_">
		<use xlink:href="#SVGID_7_"  style="overflow:visible;"/>
	</clipPath>
	<g class="st3">
		
			<image style="overflow:visible;" width="229" height="261" xlink:href="828BC9FB522B88F3.png"  transform="matrix(1 0 0 1 47 -9.1333)">
		</image>
	</g>
</g>
<g>
	<g id="Capa_2">
		<g id="Capa_6_1_">
			<g>
				<g>
					<g>
						<path class="st4" d="M807.2,211.3c-47.3,2.4-94.6,3.2-141.8,3.7c-23.6,0.2-47.3,0.4-70.9-0.1s-87.3-1.1-110.9-1.8
							s-107.3-0.9-130.9-0.9c-11.8,0-23.6,0.1-35.5,0.3l-35.5,0.7c-23.6,0.5-47.3,1.2-70.9,1.6s-47.3,0.5-70.9,0.7H137l-1.2-3
							l-8.9-22.5c-2.9-7.5-5.9-15-8.8-22.5l-8.7-22.5c-2.9-7.5-5.8-15-8.6-22.6l-0.8-2.1l0.8-2c5.9-15,11.7-30,17.7-44.9
							s11.9-29.9,18-44.8l1-2.5h2.3l29.8,0.6l29.8,0.8c9.9,0.3,19.8,0.6,29.8,1c9.9,0.4,19.8,0.7,29.8,1.2c0.3,0,0.5,0.2,0.5,0.5
							s-0.2,0.5-0.5,0.5c-9.9,0.5-19.8,0.8-29.8,1.2s-19.8,0.7-29.8,1L169.6,34l-29.8,0.6l3.4-2.5c-5.5,15.2-11.2,30.2-16.8,45.3
							c-5.6,15.1-11.4,30.1-17.1,45.2v-4c3,7.5,5.9,15,8.8,22.5l8.7,22.6c2.9,7.5,5.7,15.1,8.6,22.6l8.6,22.6l-4-2.9
							c23.6,0.2,47.3,0.4,70.9,0.7s47.3,1,70.9,1.6l35.5,0.7c11.8,0.2,23.6,0.3,35.5,0.3c23.6,0.1,107.3-0.1,130.9-0.9
							c23.6-0.7,87.3-1.3,110.9-1.7s47.3-0.2,70.9-0.1c47.3,0.4,94.6,1.3,141.8,3.7c0.3,0,0.5,0.2,0.5,0.5S807.6,211.4,807.2,211.3
							L807.2,211.3z"/>
						<path class="st4" d="M483.5,210.3c23.6-1,87.3-1.7,110.9-2.3s47.3-0.9,70.9-1.2c11.8-0.2,23.6-0.3,35.5-0.3
							c11.8,0,23.6-0.2,35.5-0.1c23.6,0,47.3,0.3,70.9,0.8l2.2,0l0.8,2.1l16.6,45.5l8.3,22.7c2.7,7.6,5.6,15.1,8.4,22.7l0.3,0.7
							l-0.3,0.6c-3,7.5-6,15-8.8,22.5c-2.9,7.5-5.9,15-8.7,22.5l-8.6,22.6l-8.5,22.6l-0.4,1h-1.1l-70.9,1.3
							c-23.6,0.5-47.3,1-70.9,1.2l-70.9,0.6c-23.6,0.2-87.3,0.4-110.9,0.4c-47.3,0-154.6-0.4-201.8-1.1c-23.6-0.3-47.3-0.9-70.9-1.4
							l-17.7-0.4l-17.7-0.5c-11.8-0.4-23.6-0.7-35.5-1.2c-0.3,0-0.5-0.2-0.5-0.5s0.2-0.5,0.5-0.5c11.8-0.5,23.6-0.8,35.5-1.2
							l17.7-0.5l17.7-0.4c23.6-0.5,47.3-1.1,70.9-1.4c47.3-0.7,154.6-1.2,201.8-1.1c23.6,0,87.3,0.2,110.9,0.4l70.9,0.6
							c23.6,0.2,47.3,0.7,70.9,1.2l70.9,1.3l-1.5,1.1l8.9-22.4l8.8-22.5c2.9-7.5,5.8-15,8.6-22.6s5.7-15,8.5-22.6v1.4
							c-3-7.5-5.9-15-9-22.4l-9.1-22.4l-18.2-44.7l2.9,2.1c-23.6,0.6-47.3,0.8-70.9,0.8c-11.8,0-23.6-0.1-35.5-0.1
							s-23.6-0.1-35.5-0.3c-23.6-0.2-47.3-0.6-70.9-1.2c-23.6-0.5-87.3-1.2-110.9-2.3c-0.3,0-0.5-0.2-0.5-0.5
							S483.2,210.3,483.5,210.3L483.5,210.3z"/>
						<path class="st4" d="M807.2,571.8c-47.3,2-94.6,2.9-141.8,3.4c-11.8,0.2-23.6,0.3-35.5,0.3c-11.8,0-23.6,0.2-35.5,0.1
							c-23.6,0-87.3-0.3-110.9-0.8l-130.9-1.5c-23.6-0.4-47.3-0.6-70.9-0.5s-47.3,0.4-70.9,0.8l-70.9,1.4h-2.2l-0.9-2.3
							c-6-14.9-12-29.9-17.9-44.8L101.2,483l-0.7-1.8l0.7-1.9l17.1-45.2l8.6-22.6l8.7-22.6l1.2-3.1h3.1c23.6-0.1,47.3,0.2,70.9,0.3
							l35.5,0.4l35.5,0.5c23.6,0.3,47.3,0.9,70.9,1.4l17.7,0.4l77.7,0.5c11.8,0.4,23.6,0.7,35.5,1.2c0.3,0,0.5,0.2,0.5,0.5
							s-0.2,0.5-0.5,0.5c-11.8,0.5-23.6,0.8-35.5,1.2l-77.7,0.5l-17.7,0.4c-23.6,0.5-47.3,1.1-70.9,1.4l-35.5,0.5l-35.5,0.4
							c-23.6,0.1-47.3,0.4-70.9,0.3l4.3-3.1l-8.7,22.5l-8.8,22.5L109,483v-3.7l17.1,45.2c5.7,15.1,11.3,30.2,16.9,45.3l-3.1-2.3
							l70.9,1.4c23.6,0.4,47.3,0.8,70.9,0.8s47.3-0.1,70.9-0.5l130.9-1.5c23.6-0.6,87.3-0.8,110.9-0.8c11.8,0,23.6,0.1,35.5,0.1
							s23.6,0.1,35.5,0.3c47.3,0.5,94.6,1.4,141.8,3.4c0.3,0,0.5,0.2,0.5,0.5S807.5,571.8,807.2,571.8L807.2,571.8z"/>
						<path class="st4" d="M483.5,571.2c23.6-1.4,87.3-2.2,110.9-2.8s47.3-0.9,70.9-1s47.3,0.2,70.9,1s47.3,1.6,70.9,1.8h0.9
							l0.4,0.9c2.9,7.5,5.7,15.1,8.7,22.6s5.8,15,8.8,22.5s6,14.9,9,22.4l9.1,22.3l0.4,1l-0.4,1.1c-5.5,15.2-10.8,30.4-16.4,45.5
							s-11.2,30.2-16.8,45.3l-1,2.7h-2.7l-35.5,0.4c-11.8,0.1-23.6,0.3-35.5,0.3c-23.6,0.1-47.3-0.2-70.9-0.4
							c-47.3-0.7-134.6-1.8-181.8-4.3c-0.3,0-0.5-0.2-0.5-0.5s0.2-0.5,0.5-0.5c47.3-2.4,134.6-3.5,181.8-4.3
							c23.6-0.3,47.3-0.5,70.9-0.4c11.8,0,23.6,0.2,35.5,0.3l35.5,0.4l-3.8,2.8c5.9-15,11.9-29.9,17.9-44.8s12.2-29.7,18.4-44.6v2.1
							l-8.2-22.8c-2.7-7.6-5.5-15.2-8.3-22.7s-5.7-15.1-8.5-22.6s-5.8-15-8.7-22.5l1.3,0.9c-23.6,0.2-47.3,1.1-70.9,1.8
							s-47.3,1.1-70.9,1s-47.3-0.4-70.9-1s-87.3-1.4-110.9-2.8c-0.3,0-0.5-0.2-0.5-0.5S483.3,571.2,483.5,571.2L483.5,571.2z"/>
					</g>
				</g>
				<text transform="matrix(1 0 0 1 2.4551 139.6382)" class="st5 st6 st7 st8">Q1</text>
				<text transform="matrix(1 0 0 1 2.4551 499.8082)" class="st5 st6 st7 st8">Q3</text>
				<text transform="matrix(1 0 0 1 877.0352 320.8282)" class="st5 st6 st7 st8">Q2</text>
				<text transform="matrix(1 0 0 1 877.0352 681.9984)" class="st5 st6 st7 st8">Q4</text>
			</g>
		</g>
	</g>
</g>
</svg>
