<svg xmlns="http://www.w3.org/2000/svg" width="15.11" height="15.76" viewBox="0 0 15.11 15.76">
  <defs>
    <style>
      .cls-1 {
        fill: #00fecf;
        stroke: #00fecf;
        stroke-miterlimit: 10;
        stroke-width: 0.75px;
      }
    </style>
  </defs>
  <title>Recurso 1</title>
  <g id="Capa_2" data-name="Capa 2">
    <g id="Capa_6" data-name="Capa 6">
      <g>
        <path class="cls-1" d="M12.81,15.39H5.88A1.93,1.93,0,0,1,4,13.46V5.88A1.93,1.93,0,0,1,5.88,4h6.93a1.93,1.93,0,0,1,1.93,1.93v7.58A1.93,1.93,0,0,1,12.81,15.39ZM5.88,4.6A1.29,1.29,0,0,0,4.6,5.88v7.58a1.29,1.29,0,0,0,1.29,1.29h6.93a1.29,1.29,0,0,0,1.29-1.29V5.88A1.29,1.29,0,0,0,12.81,4.6Z"/>
        <path class="cls-1" d="M3.38,11.81H2.3A1.93,1.93,0,0,1,.38,9.88V2.3A1.93,1.93,0,0,1,2.3.38H9.23A1.93,1.93,0,0,1,11.16,2.3v.87h-.64V2.3A1.29,1.29,0,0,0,9.23,1H2.3A1.29,1.29,0,0,0,1,2.3V9.88A1.29,1.29,0,0,0,2.3,11.17H3.38Z"/>
      </g>
    </g>
  </g>
</svg>
