<svg xmlns="http://www.w3.org/2000/svg" width="24.94" height="24.28" viewBox="0 0 24.94 24.28">
  <defs>
    <style>
      .cls-1 {
        opacity: 0.2;
      }

      .cls-2 {
        fill: #fff;
      }
    </style>
  </defs>
  <title>Recurso 2</title>
  <g id="Capa_2" data-name="Capa 2">
    <g id="Capa_6" data-name="Capa 6">
      <g class="cls-1">
        <path class="cls-2" d="M9.56,21.69c0,.58,0,1.07,0,1.57a.93.93,0,0,1-1.39.92,12.13,12.13,0,0,1-8-9.87A12.3,12.3,0,0,1,8.49.67a12.45,12.45,0,0,1,8.38,23.45c-1,.36-1.48,0-1.49-1s0-1.87,0-2.8c0-.74-.08-1.48-.13-2.21a26.1,26.1,0,0,0,2.55-.95A6.06,6.06,0,0,0,19.89,8a.85.85,0,0,1-.18-.91,3.88,3.88,0,0,0-.06-2.54c-.2-.57-.53-.87-1.11-.63-.89.38-1.74.83-2.62,1.23a1.49,1.49,0,0,1-.82.2,12,12,0,0,0-5.34,0,.91.91,0,0,1-.69-.18,5.78,5.78,0,0,0-2.8-1.32.71.71,0,0,0-.9.48,3.56,3.56,0,0,0-.09,2.72.88.88,0,0,1-.19,1,6.09,6.09,0,0,0,.16,7.67,7.42,7.42,0,0,0,3.89,2.12l.67.17a3.63,3.63,0,0,0-.17.88c.06.85-.46,1-1.11,1a3.07,3.07,0,0,1-2.74-1.35,2,2,0,0,0-2.51-1c.08.13.15.26.23.37a21.59,21.59,0,0,1,1.48,2,3.64,3.64,0,0,0,3.52,1.88C8.83,21.75,9.14,21.72,9.56,21.69Z"/>
      </g>
    </g>
  </g>
</svg>
