<svg xmlns="http://www.w3.org/2000/svg" width="20.13" height="16.68" viewBox="0 0 20.13 16.68">
  <defs>
    <style>
      .cls-1 {
        opacity: 0.2;
      }

      .cls-2 {
        fill: #fff;
      }
    </style>
  </defs>
  <title>Recurso 4</title>
  <g id="Capa_2" data-name="Capa 2">
    <g id="Capa_6" data-name="Capa 6">
      <g id="Layer_1" data-name="Layer 1" class="cls-1">
        <path class="cls-2" d="M8.18,8.46,6.09,9.87a1.82,1.82,0,0,1-.86.24,4.07,4.07,0,0,1-1.55-.19Q2,9.43.44,8.88a.6.6,0,0,1-.26-1,2.6,2.6,0,0,1,.94-.57L2.7,6.64,4.39,6,11,3.21l3.16-1.32L17.1.69C17.56.5,18,.3,18.48.13a1.94,1.94,0,0,1,1-.09.77.77,0,0,1,.62.79A6.75,6.75,0,0,1,20,2.09c-.08.63-.18,1.26-.28,1.89C19.52,5.37,18.06,14.55,18,15.21a2.16,2.16,0,0,1-.34,1,1.07,1.07,0,0,1-1.05.5,3.81,3.81,0,0,1-1.35-.45,14.12,14.12,0,0,1-1.32-.84c-.58-.38-1.17-.75-1.74-1.14-1-.69-2-1.34-2.92-2.1a1.16,1.16,0,0,1-.46-.69.8.8,0,0,1,.15-.64,5.27,5.27,0,0,1,.73-.73c.75-.7,4.5-4.26,5.08-4.87a1.78,1.78,0,0,0,.44-.72c.08-.26,0-.37-.3-.32a2.57,2.57,0,0,0-.79.34C13.24,5,8.82,8,8.18,8.46Z"/>
      </g>
    </g>
  </g>
</svg>
