<svg xmlns="http://www.w3.org/2000/svg" width="20.42" height="16.81" viewBox="0 0 20.42 16.81">
  <defs>
    <style>
      .cls-1 {
        opacity: 0.2;
      }

      .cls-2 {
        fill: #fff;
      }
    </style>
  </defs>
  <title>Recurso 3</title>
  <g id="Capa_2" data-name="Capa 2">
    <g id="Capa_6" data-name="Capa 6">
      <g id="Layer_2" data-name="Layer 2" class="cls-1">
        <path class="cls-2" d="M20.42,2V2a.48.48,0,0,1-.1.33,8,8,0,0,1-1.63,1.7c-.09.07-.25.14-.25.28,0,3.37-.86,6.74-3.32,9.18a12.36,12.36,0,0,1-12,2.81A11.53,11.53,0,0,1,.8,15.39C.55,15.26.31,15.12.08,15c-.06,0-.11-.09-.06-.12s.09,0,.28,0a8.18,8.18,0,0,0,3.47-.45,5.28,5.28,0,0,0,2.28-1.21l0,0c-.15,0-.31,0-.45-.06a4.47,4.47,0,0,1-3.34-2.8c0-.11,0-.17.11-.15A4.78,4.78,0,0,0,4,10.1a2.4,2.4,0,0,1-.54-.17A4.32,4.32,0,0,1,.79,6.49,2.7,2.7,0,0,1,.76,6c0-.11.06-.15.16-.08a4.34,4.34,0,0,0,1.63.45c-.18-.14-.35-.3-.52-.45a4.26,4.26,0,0,1-.73-5c.08-.12.14-.12.23,0A13.07,13.07,0,0,0,9.95,5.15c.09,0,.1,0,.08-.1a4.53,4.53,0,0,1,0-1.76,4.24,4.24,0,0,1,.83-1.66A4.45,4.45,0,0,1,12.3.5,4.32,4.32,0,0,1,14,0,4.18,4.18,0,0,1,15.85.3,4.45,4.45,0,0,1,17,1a1.75,1.75,0,0,1,.21.22.16.16,0,0,0,.17,0A10.5,10.5,0,0,0,19.87.36a.12.12,0,0,1,.11,0s0,.07,0,.11a3.77,3.77,0,0,1-.69,1.25c-.2.24-.68.84-1,.9A8.5,8.5,0,0,0,20.34,2C20.42,2,20.42,2,20.42,2Z"/>
      </g>
    </g>
  </g>
</svg>
