<?xml version="1.0" encoding="utf-8"?>
<!-- Generator: Adobe Illustrator 25.0.0, SVG Export Plug-In . SVG Version: 6.00 Build 0)  -->
<svg version="1.1" id="Capa_1" xmlns="http://www.w3.org/2000/svg" xmlns:xlink="http://www.w3.org/1999/xlink" x="0px" y="0px"
	 viewBox="0 0 21.9 21" style="enable-background:new 0 0 21.9 21;" xml:space="preserve">
<style type="text/css">
	.st0{opacity:0.2;}
	.st1{fill:#FFFFFF;}
</style>
<g id="Capa_2_1_">
	<g id="Capa_6">
		<g id="Layer_5" class="st0">
			<g>
				<path class="st1" d="M9.3,7.2c0.6,1-0.7,1.3-1.3,1.4C7.1,8.6,6.9,8.1,7.1,7.4C7.1,7.2,7.3,7,7.4,6.8c0.2-0.2,0.4-0.3,0.7-0.3
					c0.2,0,0.5,0,0.7,0.1C9,6.8,9.2,7,9.3,7.2L9.3,7.2z"/>
				<path class="st1" d="M13,5.3c-0.7,5.2,8.4,4.1,8.3,8.2c1.3-2,0.7-4.7-1.3-5.9c0,0-0.1,0-0.1-0.1C17.5,6,14.4,6.8,13,5.3z"/>
				<path class="st1" d="M18.2,3.3L18,3.2L18.2,3.3z"/>
				<path class="st1" d="M19,4.2c-0.3-0.3-0.5-0.6-0.8-0.9L18,3.1c-0.4-0.3-0.8-0.6-1.3-0.9c-1.7-0.9-3.7-1.1-5.5-0.7
					c-0.3-0.4-0.6-0.7-1-1c-0.1-0.1-0.3-0.3-0.5-0.4c-0.1,0-0.2,0-0.3,0C9.2,0.1,9.1,0.1,9,0.1c0.3,0.2,0.6,0.5,0.8,0.7
					c0.5,0.5,0.9,1.1,1.3,1.6c0.4,0.6,0.9,1.2,1.4,1.7c0.3,0.3,0.6,0.5,0.9,0.7L13.8,5L14,5.1l0.5,0.2c0.7,0.2,1.4,0.3,2.2,0.3
					l1.1,0.1c0.3,0,0.7,0.1,1,0.2c0.5,0.1,0.9,0.4,1.2,0.9c0.1,0.1,0.2,0.3,0.3,0.4C20.2,6,19.8,5,19,4.2z"/>
				<path class="st1" d="M8.8,3.3C8.6,2.9,8.5,2.5,8.4,2C8.4,1.5,8.2,0.9,7.8,0.5C7.7,0.3,7.6,0.2,7.4,0.1C7.2,0.1,7,0.1,6.8,0
					C6.6,0,6.5,0,6.3,0c0,0,0,0.1,0,0.1c0,1.2,0.4,2.5,1.2,3.4C7.7,3.9,8,4.1,8.4,4.3c0.2,0.1,0.8,0.3,1,0.1c0,0,0,0,0-0.1
					c0,0,0-0.1,0-0.1C9.3,4.1,9.2,4,9.1,3.8C9,3.7,8.9,3.5,8.8,3.3z"/>
				<path class="st1" d="M18.5,19.2c0.1,0,0.2,0,0.3,0c1.9-1.1,2.7-3.5,1.9-5.6c-0.8-1.9-3.2-2.6-4.6-3.6
					C14.8,13.5,20.1,15.8,18.5,19.2z"/>
				<path class="st1" d="M8.4,14.7c0.3-0.3,0.7-0.5,1.1-0.6c0.4-0.2,0.8-0.3,1.2-0.4c0.8-0.1,1.6-0.3,2.4-0.5
					c0.3-0.1,0.7-0.3,0.9-0.6c0.3-0.2,0.5-0.6,0.6-0.9c0.1-0.4,0.2-0.7,0.1-1.1c0-0.4-0.1-0.8-0.3-1.2c0.3,0.3,0.5,0.7,0.7,1.2
					c0.1,0.4,0.1,0.9,0,1.3c-0.1,0.5-0.3,1-0.6,1.3c-0.3,0.3-0.7,0.6-1.2,0.7c-0.4,0.1-0.9,0.2-1.3,0.3c-0.4,0-0.9,0-1.3,0.1
					C10.1,14.3,9.3,14.4,8.4,14.7L8.4,14.7z"/>
				<path class="st1" d="M7.3,4.2c-0.4-0.5-0.9-1-1.3-1.5L4.6,1.2L3.8,0.3c-0.1,0-0.2,0-0.2,0c-0.2,0-0.4,0-0.5,0l1.1,1.3l1.3,1.6
					C5.7,3.6,6,4,6.4,4.5c0.1,0.1,0.1,0.2,0.1,0.3c0,0.1,0,0.2-0.1,0.3C6.3,5.1,6.2,5.1,6.1,5.2c-0.1,0-0.2,0-0.3,0
					c-0.1,0-0.2,0-0.3-0.1C5.5,5.1,5.4,5,5.4,4.9L1.6,0.3c0,0,0,0.1,0,0.1c0.2,0.4,0.3,0.8,0.3,1.2L3.9,5C3.9,5.1,4,5.3,3.9,5.4
					c0,0.1-0.1,0.2-0.2,0.3C3.6,5.9,3.4,6,3.3,6.3C3.2,6.6,3.1,6.9,3,7.3C2.9,7.6,2.9,7.9,2.9,8.2c-0.2,1.1-0.7,2.1-1.5,3
					c-0.6,0.6-1.1,1.4-1.3,2.2c-0.1,0.9,0,1.7,0.4,2.5C0.6,16.3,0.8,16.7,1,17c0,0.1,0.5,0.9,0.3,0.9c2.2-0.3,3.8-1.3,4-2.3
					c0.3-1.6-1.1-1.9-1.7-2.5C3.3,12.8,3,12.4,3,11.9c0-0.7,0.2-1.4,0.6-2C3.8,9.4,4,8.9,4,8.3C4.1,8,4.1,7.7,4.1,7.4
					c0-0.1,0-0.2,0.1-0.3c0.1-0.2,0.2-0.4,0.3-0.5c0.2-0.1,0.4-0.2,0.6-0.2h0.2c0.3,0,0.6-0.1,1-0.2C6.6,6,6.9,5.8,7.1,5.5
					C7.2,5.3,7.3,5.2,7.3,5l0,0c0-0.2,0-0.4,0-0.6L7.3,4.2L7.3,4.2z"/>
				<path class="st1" d="M7.7,18.8c0.3,0.3,0.5,0.6,0.8,0.8C8.8,19.8,9.1,20,9.4,20c0.2,0,0.5,0,0.7-0.1c0.1,0,0.2-0.1,0.3-0.2
					c0.1-0.1,0.2-0.1,0.3-0.2c0.1-0.2,0.2-0.4,0.3-0.6c0-0.2,0-0.4-0.1-0.6c-0.1-0.2-0.2-0.4-0.4-0.5c0.2,0.1,0.3,0.3,0.3,0.5
					c0.1,0.4-0.1,0.8-0.3,1c-0.1,0.1-0.1,0.1-0.2,0.1c-0.1,0-0.2,0.1-0.2,0.1c0,0,0,0,0,0c-0.7,0.1-1.3-0.4-1.3-1.1
					c-0.1-0.7,0.4-1.3,1.1-1.3c0.9-0.1,1.8,0.4,2.2,1.3c0.3,0.5,0.5,1.1,0.8,1.7c0.1,0.2,0.2,0.3,0.3,0.4c0.2,0.1,0.4,0.2,0.6,0.3
					c0,0,0.1,0,0.1,0c0.2,0,0.4,0.1,0.5,0.1c0,0,0,0,0-0.1c-0.8-0.5-0.8-1.8-1-2.7c-0.1-0.3-0.2-0.7-0.3-1c-0.2-0.3-0.4-0.7-0.7-0.9
					c-0.3-0.3-0.6-0.5-1-0.6c-0.3-0.1-0.7-0.2-1-0.3c-0.7-0.1-1.4,0-2.1,0.2c-0.6,0.2-1.3,0.4-1.8,0.8c-0.6,0.3-1.1,0.7-1.6,1.2
					c0-0.1,0.4,0,0.5,0l0.5,0.1C6,17.8,6.3,17.9,6.6,18C7,18.2,7.4,18.5,7.7,18.8z"/>
			</g>
		</g>
	</g>
</g>
</svg>
