<svg xmlns="http://www.w3.org/2000/svg" width="368.3" height="129.08" viewBox="0 0 368.3 129.08">
  <defs>
    <style>
      .cls-1 {
        fill: #fff;
      }

      .cls-2 {
        fill: #00fecf;
      }

      .cls-3 {
        fill: none;
        stroke: #fff;
        stroke-miterlimit: 10;
        stroke-width: 2px;
      }
    </style>
  </defs>
  <title>Recurso 7</title>
  <g id="Capa_2" data-name="Capa 2">
    <g id="Capa_6" data-name="Capa 6">
      <g>
        <path class="cls-1" d="M49.58,54.18a4.12,4.12,0,0,1-1.06,1.52,4.57,4.57,0,0,1-1.65.93,6.91,6.91,0,0,1-2.14.31H38V39.1h6.56a6.54,6.54,0,0,1,2.05.31,4.7,4.7,0,0,1,1.64.91,4.21,4.21,0,0,1,1.08,1.47,4.75,4.75,0,0,1,.39,2,4.34,4.34,0,0,1-.74,2.49,3.83,3.83,0,0,1-2,1.52A4.34,4.34,0,0,1,50,52.07,5.44,5.44,0,0,1,49.58,54.18ZM48,42.18a2.91,2.91,0,0,0-.85-1.06,3.66,3.66,0,0,0-1.27-.61,5.73,5.73,0,0,0-1.53-.2H39.31v6.91h5.06A5.71,5.71,0,0,0,45.9,47a3.65,3.65,0,0,0,1.27-.61A2.9,2.9,0,0,0,48,45.33a4.13,4.13,0,0,0,0-3.16Zm-.51,7.2a4.29,4.29,0,0,0-2.93-1H39.31v7.32h5.26a4.29,4.29,0,0,0,2.93-1,3.84,3.84,0,0,0,0-5.39Z"/>
        <path class="cls-1" d="M96.7,56.93,95.15,52.6H86.83l-1.55,4.33H83.83L90.39,39.1h1.2l6.56,17.84ZM91,40.9,87.26,51.4h7.47Z"/>
        <path class="cls-1" d="M141.6,55.75a6.7,6.7,0,0,1-4.41,1.33,11,11,0,0,1-1.82-.14,7.32,7.32,0,0,1-1.53-.43,6.64,6.64,0,0,1-1.35-.74,9.53,9.53,0,0,1-1.24-1.05l1-1a9.24,9.24,0,0,0,1.16,1,6,6,0,0,0,1.16.65,5.33,5.33,0,0,0,1.27.35,9.83,9.83,0,0,0,1.47.1,5.3,5.3,0,0,0,3.36-1,3.26,3.26,0,0,0,1.23-2.72,3.19,3.19,0,0,0-1-2.51q-.25-.2-.48-.35a2.27,2.27,0,0,0-.51-.25,6.76,6.76,0,0,0-.66-.19q-.38-.09-.93-.16l-2.08-.33a6.11,6.11,0,0,1-3.18-1.3,4,4,0,0,1-1.4-3.28,4.54,4.54,0,0,1,1.48-3.57,5.89,5.89,0,0,1,4.06-1.32,7.78,7.78,0,0,1,2.82.45,8,8,0,0,1,2.32,1.45l-.88.88a10.13,10.13,0,0,0-.85-.68,5,5,0,0,0-.93-.51,5.82,5.82,0,0,0-1.13-.34,7.33,7.33,0,0,0-1.43-.13,4.36,4.36,0,0,0-3,1,3.46,3.46,0,0,0-1.09,2.7,2.87,2.87,0,0,0,.93,2.33,4.36,4.36,0,0,0,1.19.69,7,7,0,0,0,1.47.41l1.93.3,1.1.2a5.69,5.69,0,0,1,.84.24,3.8,3.8,0,0,1,.66.33,5.65,5.65,0,0,1,.58.41,4.22,4.22,0,0,1,1.14,1.49,4.62,4.62,0,0,1,.41,2A4.45,4.45,0,0,1,141.6,55.75Z"/>
        <path class="cls-1" d="M178.87,56.93V39.1h1.35V56.93Z"/>
        <path class="cls-1" d="M225.72,56.93,221.06,49l-4.66,7.94h-1.53l5.46-9.14-5.11-8.69h1.58l4.26,7.49,4.28-7.49h1.55l-5.11,8.69,5.51,9.14Z"/>
        <path class="cls-2" d="M37.09,111.1h6.46a10.35,10.35,0,0,1,2,.2,5.47,5.47,0,0,1,2,1.05,4.29,4.29,0,0,1,1.37,1.71,5.52,5.52,0,0,1,.55,2.54,5.41,5.41,0,0,1-1.39,3.61A5.27,5.27,0,0,1,43.9,122H39.79v7h-2.7Zm2.7,8.32h4a2.85,2.85,0,0,0,2.26-.93,3,3,0,0,0,.72-2,3.46,3.46,0,0,0-.29-1.5,2.25,2.25,0,0,0-.86-.87,3.39,3.39,0,0,0-1.93-.5h-3.9Z"/>
        <path class="cls-2" d="M83,111.1h7a5.48,5.48,0,0,1,3.63,1.17,4.74,4.74,0,0,1,1.77,3.8A5,5,0,0,1,91.91,121L96,128.93H92.83l-3.68-7.62H85.7v7.62H83Zm2.7,7.82h4.09a3,3,0,0,0,2.28-.88,2.75,2.75,0,0,0,.75-2,2.37,2.37,0,0,0-.89-2,3.1,3.1,0,0,0-2-.55H85.7Z"/>
        <path class="cls-2" d="M128.72,120a29.76,29.76,0,0,1,.18-4.16,4.92,4.92,0,0,1,.6-1.7,6.31,6.31,0,0,1,5.59-3.2,6.24,6.24,0,0,1,3.55,1,6,6,0,0,1,2,2.2,4.1,4.1,0,0,1,.62,1.7,34.33,34.33,0,0,1,.16,4.16,34.39,34.39,0,0,1-.16,4.13,4.13,4.13,0,0,1-.62,1.72,5.82,5.82,0,0,1-2,2.18,6.37,6.37,0,0,1-3.55,1,6.27,6.27,0,0,1-3.51-1,6,6,0,0,1-2.08-2.18q-.2-.4-.35-.77a5,5,0,0,1-.24-1A29.81,29.81,0,0,1,128.72,120Zm2.72,0a20.81,20.81,0,0,0,.2,3.56,3,3,0,0,0,.7,1.5,3.67,3.67,0,0,0,2.76,1.3,3.33,3.33,0,0,0,1.68-.4,3,3,0,0,0,1.08-.89,3.14,3.14,0,0,0,.72-1.5,22.18,22.18,0,0,0,.18-3.56,22.7,22.7,0,0,0-.18-3.58,3.12,3.12,0,0,0-.72-1.48,3.22,3.22,0,0,0-1.08-.92,3.94,3.94,0,0,0-1.68-.38,3.74,3.74,0,0,0-1.64.38,3.41,3.41,0,0,0-1.13.92,3,3,0,0,0-.7,1.48A21.3,21.3,0,0,0,131.44,120Z"/>
        <path class="cls-2" d="M178.69,113.51h-4.88V111.1h12.48v2.41H181.4v15.43h-2.72Z"/>
        <path class="cls-2" d="M218.64,120a29.76,29.76,0,0,1,.18-4.16,4.92,4.92,0,0,1,.6-1.7A6.31,6.31,0,0,1,225,111a6.24,6.24,0,0,1,3.55,1,6,6,0,0,1,2,2.2,4.1,4.1,0,0,1,.62,1.7,34.33,34.33,0,0,1,.16,4.16,34.39,34.39,0,0,1-.16,4.13,4.13,4.13,0,0,1-.62,1.72,5.82,5.82,0,0,1-2,2.18,6.37,6.37,0,0,1-3.55,1,6.27,6.27,0,0,1-3.51-1,6,6,0,0,1-2.08-2.18q-.2-.4-.35-.77a5,5,0,0,1-.24-1A29.81,29.81,0,0,1,218.64,120Zm2.72,0a20.81,20.81,0,0,0,.2,3.56,3,3,0,0,0,.7,1.5,3.67,3.67,0,0,0,2.76,1.3,3.33,3.33,0,0,0,1.68-.4,3,3,0,0,0,1.08-.89,3.14,3.14,0,0,0,.72-1.5,22.18,22.18,0,0,0,.18-3.56,22.7,22.7,0,0,0-.18-3.58,3.12,3.12,0,0,0-.72-1.48,3.22,3.22,0,0,0-1.08-.92,3.94,3.94,0,0,0-1.68-.38,3.74,3.74,0,0,0-1.64.38,3.41,3.41,0,0,0-1.13.92,3,3,0,0,0-.7,1.48A21.3,21.3,0,0,0,221.36,120Z"/>
        <path class="cls-2" d="M277.61,123.94a6.7,6.7,0,0,1-2.24,3.82,6.37,6.37,0,0,1-4,1.32,6.27,6.27,0,0,1-3.51-1,6,6,0,0,1-2.08-2.18q-.2-.4-.35-.77a5,5,0,0,1-.24-1A29.81,29.81,0,0,1,265,120a29.76,29.76,0,0,1,.18-4.16,4.92,4.92,0,0,1,.6-1.7,6.31,6.31,0,0,1,5.59-3.2,6,6,0,0,1,4.21,1.53,6.73,6.73,0,0,1,2.06,3.76h-2.86a3.93,3.93,0,0,0-1.2-1.83,3.53,3.53,0,0,0-2.2-.75,3.74,3.74,0,0,0-1.64.38,3.41,3.41,0,0,0-1.13.92,3,3,0,0,0-.7,1.48,21.3,21.3,0,0,0-.2,3.58,20.81,20.81,0,0,0,.2,3.56,3,3,0,0,0,.7,1.5,3.67,3.67,0,0,0,2.76,1.3,3.62,3.62,0,0,0,3.4-2.43Z"/>
        <path class="cls-2" d="M310,120a29.76,29.76,0,0,1,.18-4.16,4.92,4.92,0,0,1,.6-1.7,6.31,6.31,0,0,1,5.59-3.2,6.24,6.24,0,0,1,3.55,1,6,6,0,0,1,2,2.2,4.1,4.1,0,0,1,.62,1.7,34.33,34.33,0,0,1,.16,4.16,34.39,34.39,0,0,1-.16,4.13,4.13,4.13,0,0,1-.62,1.72,5.82,5.82,0,0,1-2,2.18,6.37,6.37,0,0,1-3.55,1,6.27,6.27,0,0,1-3.51-1,6,6,0,0,1-2.08-2.18q-.2-.4-.35-.77a5,5,0,0,1-.24-1A29.81,29.81,0,0,1,310,120Zm2.72,0a20.81,20.81,0,0,0,.2,3.56,3,3,0,0,0,.7,1.5,3.67,3.67,0,0,0,2.76,1.3A3.33,3.33,0,0,0,318,126a3,3,0,0,0,1.08-.89,3.14,3.14,0,0,0,.72-1.5A22.18,22.18,0,0,0,320,120a22.7,22.7,0,0,0-.18-3.58,3.12,3.12,0,0,0-.72-1.48A3.22,3.22,0,0,0,318,114a3.94,3.94,0,0,0-1.68-.38,3.74,3.74,0,0,0-1.64.38,3.41,3.41,0,0,0-1.13.92,3,3,0,0,0-.7,1.48A21.3,21.3,0,0,0,312.68,120Z"/>
        <path class="cls-2" d="M356.92,111.1h2.7v15.28h8.69v2.56H356.92Z"/>
      </g>
      <polyline class="cls-3" points="115.42 1 1 1 1 115.42"/>
    </g>
  </g>
</svg>
