<svg xmlns="http://www.w3.org/2000/svg" width="172.24" height="241.69" viewBox="0 0 172.24 241.69">
  <defs>
    <style>
      .cls-1 {
        fill: #f2f2f2;
      }
    </style>
  </defs>
  <title>Recurso 6</title>
  <g id="Capa_2" data-name="Capa 2">
    <g id="Capa_6" data-name="Capa 6">
      <g>
        <circle class="cls-1" cx="86.12" cy="21.05" r="1.09"/>
        <circle class="cls-1" cx="86.12" cy="1.09" r="1.09"/>
        <circle class="cls-1" cx="69.11" cy="21.05" r="1.09"/>
        <circle class="cls-1" cx="69.11" cy="1.09" r="1.09"/>
        <circle class="cls-1" cx="52.11" cy="21.05" r="1.09"/>
        <circle class="cls-1" cx="52.11" cy="1.09" r="1.09"/>
        <circle class="cls-1" cx="35.1" cy="21.05" r="1.09"/>
        <circle class="cls-1" cx="35.1" cy="1.09" r="1.09"/>
        <circle class="cls-1" cx="18.09" cy="21.05" r="1.09"/>
        <circle class="cls-1" cx="18.09" cy="1.09" r="1.09"/>
        <circle class="cls-1" cx="171.15" cy="240.6" r="1.09"/>
        <circle class="cls-1" cx="171.15" cy="220.64" r="1.09"/>
        <circle class="cls-1" cx="171.15" cy="200.68" r="1.09"/>
        <circle class="cls-1" cx="171.15" cy="180.72" r="1.09"/>
        <circle class="cls-1" cx="171.15" cy="160.76" r="1.09"/>
        <circle class="cls-1" cx="171.15" cy="140.8" r="1.09"/>
        <circle class="cls-1" cx="171.15" cy="120.84" r="1.09"/>
        <circle class="cls-1" cx="171.15" cy="100.88" r="1.09"/>
        <circle class="cls-1" cx="171.15" cy="80.92" r="1.09"/>
        <circle class="cls-1" cx="171.15" cy="60.97" r="1.09"/>
        <circle class="cls-1" cx="171.15" cy="41.01" r="1.09"/>
        <circle class="cls-1" cx="171.15" cy="21.05" r="1.09"/>
        <circle class="cls-1" cx="171.15" cy="1.09" r="1.09"/>
        <circle class="cls-1" cx="154.14" cy="240.6" r="1.09"/>
        <circle class="cls-1" cx="154.14" cy="220.64" r="1.09"/>
        <circle class="cls-1" cx="154.14" cy="200.68" r="1.09"/>
        <circle class="cls-1" cx="154.14" cy="180.72" r="1.09"/>
        <circle class="cls-1" cx="154.14" cy="160.76" r="1.09"/>
        <circle class="cls-1" cx="154.14" cy="140.8" r="1.09"/>
        <circle class="cls-1" cx="154.14" cy="120.84" r="1.09"/>
        <circle class="cls-1" cx="154.14" cy="100.88" r="1.09"/>
        <circle class="cls-1" cx="154.14" cy="80.92" r="1.09"/>
        <circle class="cls-1" cx="154.14" cy="60.97" r="1.09"/>
        <circle class="cls-1" cx="154.14" cy="41.01" r="1.09"/>
        <circle class="cls-1" cx="154.14" cy="21.05" r="1.09"/>
        <circle class="cls-1" cx="154.14" cy="1.09" r="1.09"/>
        <circle class="cls-1" cx="137.14" cy="240.6" r="1.09"/>
        <circle class="cls-1" cx="137.14" cy="220.64" r="1.09"/>
        <circle class="cls-1" cx="137.14" cy="200.68" r="1.09"/>
        <circle class="cls-1" cx="137.14" cy="180.72" r="1.09"/>
        <circle class="cls-1" cx="137.14" cy="160.76" r="1.09"/>
        <circle class="cls-1" cx="137.14" cy="140.8" r="1.09"/>
        <circle class="cls-1" cx="137.14" cy="120.84" r="1.09"/>
        <circle class="cls-1" cx="137.14" cy="100.88" r="1.09"/>
        <circle class="cls-1" cx="137.14" cy="80.92" r="1.09"/>
        <circle class="cls-1" cx="137.14" cy="60.97" r="1.09"/>
        <circle class="cls-1" cx="137.14" cy="41.01" r="1.09"/>
        <circle class="cls-1" cx="137.14" cy="21.05" r="1.09"/>
        <circle class="cls-1" cx="137.14" cy="1.09" r="1.09"/>
        <circle class="cls-1" cx="120.13" cy="21.05" r="1.09"/>
        <circle class="cls-1" cx="120.13" cy="1.09" r="1.09"/>
        <circle class="cls-1" cx="103.12" cy="21.05" r="1.09"/>
        <circle class="cls-1" cx="103.12" cy="1.09" r="1.09"/>
        <circle class="cls-1" cx="1.09" cy="21.05" r="1.09"/>
        <circle class="cls-1" cx="1.09" cy="1.09" r="1.09"/>
      </g>
    </g>
  </g>
</svg>
