<?xml version="1.0" encoding="utf-8"?>
<!-- Generator: Adobe Illustrator 21.0.2, SVG Export Plug-In . SVG Version: 6.00 Build 0)  -->
<svg version="1.1" id="Capa_1" xmlns="http://www.w3.org/2000/svg" xmlns:xlink="http://www.w3.org/1999/xlink" x="0px" y="0px"
	 viewBox="0 0 319.1 81.4" style="enable-background:new 0 0 319.1 81.4;" xml:space="preserve">
<style type="text/css">
	.st0{opacity:0.2;fill:#FFFFFF;}
	.st1{fill:none;stroke:#00FECF;stroke-width:2;stroke-miterlimit:10;}
	.st2{fill:#FFFFFF;}
</style>
<g>
	<rect y="15.9" class="st0" width="319.1" height="25.8"/>
	<g>
		<g>
			<path class="st1" d="M25.4,9.1h14.2c1.5,0,3,0.1,4.5,0.4c1.4,0.4,2.9,1.1,4.4,2.3c1.2,0.9,2.2,2.1,3,3.8c0.8,1.6,1.2,3.4,1.2,5.6
				c0,2.9-1,5.5-3.1,7.9c-2.1,2.5-5.2,3.8-9.2,3.9h-9v15.3h-5.9V9.1z M31.4,27.3h8.8c2.2,0,3.9-0.7,5-2c1.1-1.3,1.6-2.7,1.6-4.3
				c0-1.3-0.2-2.4-0.6-3.3c-0.4-0.8-1.1-1.4-1.9-1.9c-1.2-0.8-2.6-1.1-4.2-1.1h-8.6V27.3z"/>
			<path class="st1" d="M85.5,9.1h15.3c3.3,0,5.9,0.9,8,2.6c2.5,2,3.8,4.7,3.9,8.4c-0.1,5.3-2.6,8.9-7.6,10.8l9.1,17.4h-7.1L99,31.5
				h-7.6v16.7h-5.9V9.1z M91.5,26.2h9c2.2,0,3.9-0.7,5-1.9c1.1-1.2,1.6-2.6,1.6-4.3c0-2-0.7-3.5-2-4.4c-1-0.8-2.5-1.2-4.4-1.2h-9.3
				V26.2z"/>
			<path class="st1" d="M145.2,28.7c0-4.5,0.1-7.6,0.4-9.1c0.3-1.5,0.7-2.8,1.3-3.7c0.9-1.8,2.5-3.4,4.6-4.8
				c2.1-1.4,4.6-2.2,7.7-2.2c3.1,0,5.7,0.8,7.8,2.2c2.1,1.4,3.5,3,4.5,4.8c0.7,0.9,1.1,2.2,1.4,3.7c0.2,1.5,0.3,4.6,0.3,9.1
				c0,4.5-0.1,7.5-0.3,9.1c-0.3,1.6-0.7,2.8-1.4,3.8c-0.9,1.8-2.4,3.4-4.5,4.8c-2.1,1.4-4.7,2.2-7.8,2.3c-3.1-0.1-5.6-0.8-7.7-2.3
				c-2.1-1.4-3.6-3-4.6-4.8c-0.3-0.6-0.5-1.2-0.8-1.7c-0.2-0.6-0.4-1.3-0.5-2.1C145.4,36.2,145.2,33.1,145.2,28.7z M151.2,28.7
				c0,3.8,0.1,6.5,0.4,7.8c0.3,1.4,0.8,2.5,1.5,3.3c0.6,0.8,1.5,1.5,2.5,2c1,0.6,2.2,0.9,3.6,0.9c1.4,0,2.6-0.3,3.7-0.9
				c1-0.5,1.8-1.2,2.4-2c0.8-0.8,1.3-1.9,1.6-3.3c0.3-1.4,0.4-4,0.4-7.8s-0.1-6.5-0.4-7.9c-0.3-1.3-0.8-2.4-1.6-3.2
				c-0.6-0.8-1.4-1.5-2.4-2c-1-0.5-2.3-0.8-3.7-0.8c-1.4,0-2.6,0.3-3.6,0.8c-1,0.5-1.8,1.2-2.5,2c-0.8,0.8-1.3,1.9-1.5,3.2
				C151.3,22.2,151.2,24.8,151.2,28.7z"/>
			<path class="st1" d="M206.3,28.7c0-4.5,0.1-7.6,0.4-9.1c0.3-1.5,0.7-2.8,1.3-3.7c0.9-1.8,2.5-3.4,4.6-4.8
				c2.1-1.4,4.6-2.2,7.7-2.2c3.1,0,5.7,0.8,7.8,2.2c2.1,1.4,3.5,3,4.5,4.8c0.7,0.9,1.1,2.2,1.4,3.7c0.2,1.5,0.3,4.6,0.3,9.1
				c0,4.5-0.1,7.5-0.3,9.1c-0.3,1.6-0.7,2.8-1.4,3.8c-0.9,1.8-2.4,3.4-4.5,4.8c-2.1,1.4-4.7,2.2-7.8,2.3c-3.1-0.1-5.6-0.8-7.7-2.3
				c-2.1-1.4-3.6-3-4.6-4.8c-0.3-0.6-0.5-1.2-0.8-1.7c-0.2-0.6-0.4-1.3-0.5-2.1C206.4,36.2,206.3,33.1,206.3,28.7z M212.2,28.7
				c0,3.8,0.1,6.5,0.4,7.8c0.2,1.4,0.8,2.5,1.5,3.3c0.6,0.8,1.5,1.5,2.5,2c1,0.6,2.2,0.9,3.6,0.9c1.4,0,2.6-0.3,3.7-0.9
				c1-0.5,1.8-1.2,2.4-2c0.8-0.8,1.3-1.9,1.6-3.3c0.3-1.4,0.4-4,0.4-7.8s-0.1-6.5-0.4-7.9c-0.3-1.3-0.8-2.4-1.6-3.2
				c-0.6-0.8-1.4-1.5-2.4-2c-1-0.5-2.3-0.8-3.7-0.8c-1.4,0-2.6,0.3-3.6,0.8c-1,0.5-1.8,1.2-2.5,2c-0.8,0.8-1.3,1.9-1.5,3.2
				C212.4,22.2,212.2,24.8,212.2,28.7z"/>
			<path class="st1" d="M268.7,9.1h25v5.6h-19.1v11.5h16.3v5.3h-16.3v16.7h-5.9V9.1z"/>
		</g>
	</g>
	<g>
		<g>
			<path class="st2" d="M81.7,75.4c-0.3,0.2-0.5,0.4-0.8,0.5c-0.3,0.1-0.6,0.2-0.9,0.3c-0.3,0.1-0.6,0.1-1,0.1
				c-0.7,0-1.4-0.1-1.9-0.4s-1.1-0.6-1.5-1.1c-0.4-0.5-0.7-1-0.9-1.7c-0.2-0.7-0.3-1.4-0.3-2.3s0.1-1.6,0.3-2.3
				c0.2-0.7,0.5-1.2,0.9-1.7c0.4-0.5,0.9-0.8,1.5-1.1c0.6-0.2,1.2-0.4,1.9-0.4c0.4,0,0.7,0,1,0.1c0.3,0.1,0.6,0.1,0.9,0.3
				c0.3,0.1,0.5,0.3,0.8,0.5c0.3,0.2,0.5,0.5,0.8,0.8l-0.8,0.7c-0.5-0.5-0.9-0.8-1.3-1c-0.4-0.2-0.9-0.3-1.4-0.3
				c-0.6,0-1.1,0.1-1.6,0.4s-0.9,0.6-1.2,1.1c-0.3,0.4-0.5,0.8-0.6,1.3c-0.1,0.5-0.2,1.1-0.2,1.8s0.1,1.3,0.2,1.8
				c0.1,0.5,0.3,0.9,0.6,1.3c0.3,0.5,0.7,0.8,1.2,1.1s1,0.4,1.6,0.4c0.3,0,0.5,0,0.8-0.1c0.2,0,0.5-0.1,0.7-0.2
				c0.2-0.1,0.4-0.2,0.6-0.4c0.2-0.2,0.4-0.4,0.6-0.6l0.8,0.7C82.3,75,82,75.2,81.7,75.4z"/>
			<path class="st2" d="M97.2,76.2c-0.9,0-1.5-0.2-1.9-0.7c-0.4-0.5-0.6-1.2-0.6-2V60.5h1.1v12.9c0,0.6,0.1,1,0.3,1.3
				c0.2,0.3,0.7,0.4,1.3,0.4h0.8v1H97.2z"/>
			<path class="st2" d="M110.9,61.8c-0.2,0.2-0.4,0.2-0.6,0.2c-0.2,0-0.4-0.1-0.6-0.2c-0.2-0.2-0.2-0.4-0.2-0.6
				c0-0.2,0.1-0.4,0.2-0.6c0.2-0.2,0.4-0.2,0.6-0.2c0.2,0,0.4,0.1,0.6,0.2c0.2,0.2,0.2,0.4,0.2,0.6
				C111.1,61.4,111.1,61.6,110.9,61.8z M109.8,76.2V65.6h1.1v10.6H109.8z"/>
			<path class="st2" d="M130.7,75.4c-0.3,0.2-0.5,0.4-0.8,0.5c-0.3,0.1-0.6,0.2-0.9,0.3c-0.3,0.1-0.6,0.1-1,0.1
				c-0.7,0-1.4-0.1-1.9-0.4c-0.6-0.2-1.1-0.6-1.5-1.1c-0.4-0.5-0.7-1-0.9-1.7c-0.2-0.7-0.3-1.4-0.3-2.3s0.1-1.6,0.3-2.3
				c0.2-0.7,0.5-1.2,0.9-1.7c0.4-0.5,0.9-0.8,1.5-1.1c0.6-0.2,1.2-0.4,1.9-0.4c0.4,0,0.7,0,1,0.1c0.3,0.1,0.6,0.1,0.9,0.3
				c0.3,0.1,0.5,0.3,0.8,0.5c0.3,0.2,0.5,0.5,0.8,0.8l-0.8,0.7c-0.5-0.5-0.9-0.8-1.3-1c-0.4-0.2-0.9-0.3-1.4-0.3
				c-0.6,0-1.1,0.1-1.6,0.4c-0.5,0.2-0.9,0.6-1.2,1.1c-0.3,0.4-0.5,0.8-0.6,1.3c-0.1,0.5-0.2,1.1-0.2,1.8s0.1,1.3,0.2,1.8
				c0.1,0.5,0.3,0.9,0.6,1.3c0.3,0.5,0.7,0.8,1.2,1.1c0.5,0.2,1,0.4,1.6,0.4c0.3,0,0.5,0,0.8-0.1c0.2,0,0.5-0.1,0.7-0.2
				c0.2-0.1,0.4-0.2,0.6-0.4c0.2-0.2,0.4-0.4,0.6-0.6l0.8,0.7C131.2,75,130.9,75.2,130.7,75.4z"/>
			<path class="st2" d="M150.8,76.2l-3.7-5.8l-2.4,2.8v3h-1.1V60.5h1.1v11l5.3-6h1.4l-3.5,4l4.3,6.6H150.8z"/>
			<path class="st2" d="M185.4,76.2v-6.6c0-1-0.2-1.8-0.7-2.4c-0.5-0.5-1.2-0.8-2.2-0.8c-1,0-1.7,0.3-2.2,0.8
				c-0.5,0.5-0.8,1.3-0.8,2.3v6.6h-1.1V60.5h1.1v6.3c0.8-0.9,1.8-1.4,3.1-1.4c1.2,0,2.2,0.4,2.9,1.1c0.7,0.7,1,1.7,1,2.9v6.8H185.4z
				"/>
			<path class="st2" d="M200,71.1c0,1.4,0.3,2.4,0.9,3.1s1.4,1.1,2.6,1.1c0.6,0,1.2-0.1,1.6-0.3c0.4-0.2,0.9-0.5,1.3-1l0.8,0.7
				c-0.3,0.3-0.5,0.5-0.8,0.7c-0.3,0.2-0.6,0.4-0.9,0.5c-0.3,0.1-0.6,0.2-1,0.3s-0.7,0.1-1.2,0.1c-1.5,0-2.6-0.5-3.4-1.4
				s-1.2-2.3-1.2-4c0-1.7,0.4-3.1,1.1-4s1.8-1.4,3.1-1.4s2.4,0.5,3.1,1.4c0.7,0.9,1.1,2.2,1.1,3.8v0.5H200z M206.2,69.6
				c0-0.2,0-0.3-0.1-0.5c0-0.1-0.1-0.3-0.1-0.4s-0.1-0.3-0.2-0.5c-0.2-0.6-0.6-1-1.1-1.3s-1-0.5-1.7-0.5s-1.2,0.2-1.7,0.5
				s-0.9,0.8-1.1,1.3c-0.1,0.2-0.1,0.3-0.2,0.5s-0.1,0.3-0.1,0.4s-0.1,0.3-0.1,0.5c0,0.2,0,0.4,0,0.6h6.2
				C206.2,70,206.2,69.7,206.2,69.6z"/>
			<path class="st2" d="M225.8,67.3c-0.3-0.3-0.6-0.5-0.9-0.7c-0.3-0.1-0.6-0.2-1.1-0.2c-0.5,0-0.9,0.1-1.2,0.3
				c-0.4,0.2-0.6,0.4-0.9,0.7c-0.2,0.3-0.4,0.6-0.5,1c-0.1,0.4-0.2,0.8-0.2,1.2v6.5h-1.1V65.6h1.1V67c0.3-0.5,0.7-0.9,1.3-1.1
				c0.6-0.3,1.2-0.4,1.8-0.4c0.5,0,1,0.1,1.4,0.2s0.8,0.4,1.2,0.8L225.8,67.3z"/>
			<path class="st2" d="M237.3,71.1c0,1.4,0.3,2.4,0.9,3.1s1.4,1.1,2.6,1.1c0.6,0,1.2-0.1,1.6-0.3c0.4-0.2,0.9-0.5,1.3-1l0.8,0.7
				c-0.3,0.3-0.5,0.5-0.8,0.7c-0.3,0.2-0.6,0.4-0.9,0.5c-0.3,0.1-0.6,0.2-1,0.3s-0.7,0.1-1.2,0.1c-1.5,0-2.6-0.5-3.4-1.4
				s-1.2-2.3-1.2-4c0-1.7,0.4-3.1,1.1-4s1.8-1.4,3.1-1.4s2.4,0.5,3.1,1.4c0.7,0.9,1.1,2.2,1.1,3.8v0.5H237.3z M243.5,69.6
				c0-0.2,0-0.3-0.1-0.5c0-0.1-0.1-0.3-0.1-0.4s-0.1-0.3-0.2-0.5c-0.2-0.6-0.6-1-1.1-1.3s-1-0.5-1.7-0.5s-1.2,0.2-1.7,0.5
				s-0.9,0.8-1.1,1.3c-0.1,0.2-0.1,0.3-0.2,0.5c0,0.1-0.1,0.3-0.1,0.4s-0.1,0.3-0.1,0.5c0,0.2,0,0.4,0,0.6h6.2
				C243.6,70,243.6,69.7,243.5,69.6z"/>
		</g>
	</g>
</g>
</svg>
