<svg xmlns="http://www.w3.org/2000/svg" width="391.42" height="235.59" viewBox="0 0 391.42 235.59">
  <defs>
    <style>
      .cls-1 {
        opacity: 0.2;
      }

      .cls-2 {
        fill: #fff;
      }

      .cls-3 {
        font-size: 25.05px;
        fill: #00fecf;
        font-family: DINAlternate-Bold, DIN Alternate;
        font-weight: 700;
        letter-spacing: 0.5em;
      }
    </style>
  </defs>
  <title>Recurso 12</title>
  <g id="Capa_2" data-name="Capa 2">
    <g id="Capa_6" data-name="Capa 6">
      <g class="cls-1">
        <g>
          <circle class="cls-2" cx="2.23" cy="2.23" r="2.23"/>
          <circle class="cls-2" cx="26.77" cy="2.23" r="2.23"/>
          <circle class="cls-2" cx="51.32" cy="2.23" r="2.23"/>
          <circle class="cls-2" cx="75.87" cy="2.23" r="2.23"/>
          <circle class="cls-2" cx="100.41" cy="2.23" r="2.23"/>
          <circle class="cls-2" cx="124.96" cy="2.23" r="2.23"/>
          <circle class="cls-2" cx="149.5" cy="2.23" r="2.23"/>
          <circle class="cls-2" cx="174.05" cy="2.23" r="2.23"/>
          <circle class="cls-2" cx="198.6" cy="2.23" r="2.23"/>
          <circle class="cls-2" cx="223.14" cy="2.23" r="2.23"/>
          <circle class="cls-2" cx="247.69" cy="2.23" r="2.23"/>
          <circle class="cls-2" cx="272.24" cy="2.23" r="2.23"/>
          <circle class="cls-2" cx="296.78" cy="2.23" r="2.23"/>
          <circle class="cls-2" cx="2.23" cy="23.14" r="2.23"/>
          <circle class="cls-2" cx="26.77" cy="23.14" r="2.23"/>
          <circle class="cls-2" cx="51.32" cy="23.14" r="2.23"/>
          <circle class="cls-2" cx="75.87" cy="23.14" r="2.23"/>
          <circle class="cls-2" cx="100.41" cy="23.14" r="2.23"/>
          <circle class="cls-2" cx="124.96" cy="23.14" r="2.23"/>
          <circle class="cls-2" cx="149.5" cy="23.14" r="2.23"/>
          <circle class="cls-2" cx="174.05" cy="23.14" r="2.23"/>
          <circle class="cls-2" cx="198.6" cy="23.14" r="2.23"/>
          <circle class="cls-2" cx="223.14" cy="23.14" r="2.23"/>
          <circle class="cls-2" cx="247.69" cy="23.14" r="2.23"/>
          <circle class="cls-2" cx="272.24" cy="23.14" r="2.23"/>
          <circle class="cls-2" cx="296.78" cy="23.14" r="2.23"/>
          <circle class="cls-2" cx="2.23" cy="44.06" r="2.23"/>
          <circle class="cls-2" cx="26.77" cy="44.06" r="2.23"/>
          <circle class="cls-2" cx="51.32" cy="44.06" r="2.23"/>
          <circle class="cls-2" cx="75.87" cy="44.06" r="2.23"/>
          <circle class="cls-2" cx="100.41" cy="44.06" r="2.23"/>
          <circle class="cls-2" cx="124.96" cy="44.06" r="2.23"/>
          <circle class="cls-2" cx="149.5" cy="44.06" r="2.23"/>
          <circle class="cls-2" cx="174.05" cy="44.06" r="2.23"/>
          <circle class="cls-2" cx="198.6" cy="44.06" r="2.23"/>
          <circle class="cls-2" cx="223.14" cy="44.06" r="2.23"/>
          <circle class="cls-2" cx="247.69" cy="44.06" r="2.23"/>
          <circle class="cls-2" cx="272.24" cy="44.06" r="2.23"/>
          <circle class="cls-2" cx="296.78" cy="44.06" r="2.23"/>
          <circle class="cls-2" cx="2.23" cy="64.97" r="2.23"/>
          <circle class="cls-2" cx="26.77" cy="64.97" r="2.23"/>
          <circle class="cls-2" cx="51.32" cy="64.97" r="2.23"/>
          <circle class="cls-2" cx="75.87" cy="64.97" r="2.23"/>
          <circle class="cls-2" cx="100.41" cy="64.97" r="2.23"/>
          <circle class="cls-2" cx="124.96" cy="64.97" r="2.23"/>
          <circle class="cls-2" cx="149.5" cy="64.97" r="2.23"/>
          <circle class="cls-2" cx="174.05" cy="64.97" r="2.23"/>
          <circle class="cls-2" cx="198.6" cy="64.97" r="2.23"/>
          <circle class="cls-2" cx="223.14" cy="64.97" r="2.23"/>
          <circle class="cls-2" cx="247.69" cy="64.97" r="2.23"/>
          <circle class="cls-2" cx="272.24" cy="64.97" r="2.23"/>
          <circle class="cls-2" cx="296.78" cy="64.97" r="2.23"/>
          <circle class="cls-2" cx="2.23" cy="85.88" r="2.23"/>
          <circle class="cls-2" cx="26.77" cy="85.88" r="2.23"/>
          <circle class="cls-2" cx="51.32" cy="85.88" r="2.23"/>
          <circle class="cls-2" cx="75.87" cy="85.88" r="2.23"/>
          <circle class="cls-2" cx="100.41" cy="85.88" r="2.23"/>
          <circle class="cls-2" cx="124.96" cy="85.88" r="2.23"/>
          <circle class="cls-2" cx="149.5" cy="85.88" r="2.23"/>
          <circle class="cls-2" cx="174.05" cy="85.88" r="2.23"/>
          <circle class="cls-2" cx="198.6" cy="85.88" r="2.23"/>
          <circle class="cls-2" cx="223.14" cy="85.88" r="2.23"/>
          <circle class="cls-2" cx="247.69" cy="85.88" r="2.23"/>
          <circle class="cls-2" cx="272.24" cy="85.88" r="2.23"/>
          <circle class="cls-2" cx="296.78" cy="85.88" r="2.23"/>
          <circle class="cls-2" cx="2.23" cy="106.8" r="2.23"/>
          <circle class="cls-2" cx="26.77" cy="106.8" r="2.23"/>
          <circle class="cls-2" cx="51.32" cy="106.8" r="2.23"/>
          <circle class="cls-2" cx="75.87" cy="106.8" r="2.23"/>
          <circle class="cls-2" cx="100.41" cy="106.8" r="2.23"/>
          <circle class="cls-2" cx="124.96" cy="106.8" r="2.23"/>
          <circle class="cls-2" cx="149.5" cy="106.8" r="2.23"/>
          <circle class="cls-2" cx="174.05" cy="106.8" r="2.23"/>
          <circle class="cls-2" cx="198.6" cy="106.8" r="2.23"/>
          <circle class="cls-2" cx="223.14" cy="106.8" r="2.23"/>
          <circle class="cls-2" cx="247.69" cy="106.8" r="2.23"/>
          <circle class="cls-2" cx="272.24" cy="106.8" r="2.23"/>
          <circle class="cls-2" cx="296.78" cy="106.8" r="2.23"/>
        </g>
        <g>
          <circle class="cls-2" cx="2.23" cy="128.79" r="2.23"/>
          <circle class="cls-2" cx="26.77" cy="128.79" r="2.23"/>
          <circle class="cls-2" cx="51.32" cy="128.79" r="2.23"/>
          <circle class="cls-2" cx="75.87" cy="128.79" r="2.23"/>
          <circle class="cls-2" cx="100.41" cy="128.79" r="2.23"/>
          <circle class="cls-2" cx="124.96" cy="128.79" r="2.23"/>
          <circle class="cls-2" cx="149.5" cy="128.79" r="2.23"/>
          <circle class="cls-2" cx="174.05" cy="128.79" r="2.23"/>
          <circle class="cls-2" cx="198.6" cy="128.79" r="2.23"/>
          <circle class="cls-2" cx="223.14" cy="128.79" r="2.23"/>
          <circle class="cls-2" cx="247.69" cy="128.79" r="2.23"/>
          <circle class="cls-2" cx="272.24" cy="128.79" r="2.23"/>
          <circle class="cls-2" cx="296.78" cy="128.79" r="2.23"/>
          <circle class="cls-2" cx="2.23" cy="149.71" r="2.23"/>
          <circle class="cls-2" cx="26.77" cy="149.71" r="2.23"/>
          <circle class="cls-2" cx="51.32" cy="149.71" r="2.23"/>
          <circle class="cls-2" cx="75.87" cy="149.71" r="2.23"/>
          <circle class="cls-2" cx="100.41" cy="149.71" r="2.23"/>
          <circle class="cls-2" cx="124.96" cy="149.71" r="2.23"/>
          <circle class="cls-2" cx="149.5" cy="149.71" r="2.23"/>
          <circle class="cls-2" cx="174.05" cy="149.71" r="2.23"/>
          <circle class="cls-2" cx="198.6" cy="149.71" r="2.23"/>
          <circle class="cls-2" cx="223.14" cy="149.71" r="2.23"/>
          <circle class="cls-2" cx="247.69" cy="149.71" r="2.23"/>
          <circle class="cls-2" cx="272.24" cy="149.71" r="2.23"/>
          <circle class="cls-2" cx="296.78" cy="149.71" r="2.23"/>
          <circle class="cls-2" cx="2.23" cy="170.62" r="2.23"/>
          <circle class="cls-2" cx="26.77" cy="170.62" r="2.23"/>
          <circle class="cls-2" cx="51.32" cy="170.62" r="2.23"/>
          <circle class="cls-2" cx="75.87" cy="170.62" r="2.23"/>
          <circle class="cls-2" cx="100.41" cy="170.62" r="2.23"/>
          <circle class="cls-2" cx="124.96" cy="170.62" r="2.23"/>
          <circle class="cls-2" cx="149.5" cy="170.62" r="2.23"/>
          <circle class="cls-2" cx="174.05" cy="170.62" r="2.23"/>
          <circle class="cls-2" cx="198.6" cy="170.62" r="2.23"/>
          <circle class="cls-2" cx="223.14" cy="170.62" r="2.23"/>
          <circle class="cls-2" cx="247.69" cy="170.62" r="2.23"/>
          <circle class="cls-2" cx="272.24" cy="170.62" r="2.23"/>
          <circle class="cls-2" cx="296.78" cy="170.62" r="2.23"/>
          <circle class="cls-2" cx="2.23" cy="191.54" r="2.23"/>
          <circle class="cls-2" cx="26.77" cy="191.54" r="2.23"/>
          <circle class="cls-2" cx="51.32" cy="191.54" r="2.23"/>
          <circle class="cls-2" cx="75.87" cy="191.54" r="2.23"/>
          <circle class="cls-2" cx="100.41" cy="191.54" r="2.23"/>
          <circle class="cls-2" cx="124.96" cy="191.54" r="2.23"/>
          <circle class="cls-2" cx="149.5" cy="191.54" r="2.23"/>
          <circle class="cls-2" cx="174.05" cy="191.54" r="2.23"/>
          <circle class="cls-2" cx="198.6" cy="191.54" r="2.23"/>
          <circle class="cls-2" cx="223.14" cy="191.54" r="2.23"/>
          <circle class="cls-2" cx="247.69" cy="191.54" r="2.23"/>
          <circle class="cls-2" cx="272.24" cy="191.54" r="2.23"/>
          <circle class="cls-2" cx="296.78" cy="191.54" r="2.23"/>
          <circle class="cls-2" cx="2.23" cy="212.45" r="2.23"/>
          <circle class="cls-2" cx="26.77" cy="212.45" r="2.23"/>
          <circle class="cls-2" cx="51.32" cy="212.45" r="2.23"/>
          <circle class="cls-2" cx="75.87" cy="212.45" r="2.23"/>
          <circle class="cls-2" cx="100.41" cy="212.45" r="2.23"/>
          <circle class="cls-2" cx="124.96" cy="212.45" r="2.23"/>
          <circle class="cls-2" cx="149.5" cy="212.45" r="2.23"/>
          <circle class="cls-2" cx="174.05" cy="212.45" r="2.23"/>
          <circle class="cls-2" cx="198.6" cy="212.45" r="2.23"/>
          <circle class="cls-2" cx="223.14" cy="212.45" r="2.23"/>
          <circle class="cls-2" cx="247.69" cy="212.45" r="2.23"/>
          <circle class="cls-2" cx="272.24" cy="212.45" r="2.23"/>
          <circle class="cls-2" cx="296.78" cy="212.45" r="2.23"/>
          <circle class="cls-2" cx="2.23" cy="233.37" r="2.23"/>
          <circle class="cls-2" cx="26.77" cy="233.37" r="2.23"/>
          <circle class="cls-2" cx="51.32" cy="233.37" r="2.23"/>
          <circle class="cls-2" cx="75.87" cy="233.37" r="2.23"/>
          <circle class="cls-2" cx="100.41" cy="233.37" r="2.23"/>
          <circle class="cls-2" cx="124.96" cy="233.37" r="2.23"/>
          <circle class="cls-2" cx="149.5" cy="233.37" r="2.23"/>
          <circle class="cls-2" cx="174.05" cy="233.37" r="2.23"/>
          <circle class="cls-2" cx="198.6" cy="233.37" r="2.23"/>
          <circle class="cls-2" cx="223.14" cy="233.37" r="2.23"/>
          <circle class="cls-2" cx="247.69" cy="233.37" r="2.23"/>
          <circle class="cls-2" cx="272.24" cy="233.37" r="2.23"/>
          <circle class="cls-2" cx="296.78" cy="233.37" r="2.23"/>
        </g>
      </g>
      <text class="cls-3" transform="translate(72.14 51.19)">B A S I X<tspan class="cls-2"><tspan x="0" y="72">Y I E L D</tspan></tspan><tspan x="0" y="144">F A R M I N G </tspan></text>
    </g>
  </g>
</svg>
