<?xml version="1.0" encoding="utf-8"?>
<!-- Generator: Adobe Illustrator 25.0.0, SVG Export Plug-In . SVG Version: 6.00 Build 0)  -->
<svg version="1.1" id="Capa_1" xmlns="http://www.w3.org/2000/svg" xmlns:xlink="http://www.w3.org/1999/xlink" x="0px" y="0px"
	 viewBox="0 0 1491.6 31.6" style="enable-background:new 0 0 1491.6 31.6;" xml:space="preserve">
<style type="text/css">
	.st0{opacity:0.2;}
	.st1{fill:none;stroke:#FFFFFF;stroke-width:2;stroke-miterlimit:10;}
</style>
<g id="Capa_2_1_">
	<g id="Capa_6">
		<g class="st0">
			<g>
				<g>
					<polygon class="st1" points="1286.9,1 1257.3,30.6 1258.9,30.6 1288.6,1 					"/>
					<polygon class="st1" points="1271.6,1 1241.9,30.6 1243.6,30.6 1273.3,1 					"/>
					<polygon class="st1" points="1256.2,1 1226.6,30.6 1228.3,30.6 1257.9,1 					"/>
					<polygon class="st1" points="1240.9,1 1211.2,30.6 1212.9,30.6 1242.6,1 					"/>
					<polygon class="st1" points="1225.5,1 1195.9,30.6 1197.6,30.6 1227.2,1 					"/>
					<polygon class="st1" points="1210.2,1 1180.5,30.6 1182.2,30.6 1211.9,1 					"/>
					<polygon class="st1" points="1194.8,1 1165.2,30.6 1166.9,30.6 1196.5,1 					"/>
					<polygon class="st1" points="1179.5,1 1149.8,30.6 1151.5,30.6 1181.2,1 					"/>
					<polygon class="st1" points="1164.2,1 1134.5,30.6 1136.2,30.6 1165.8,1 					"/>
					<polygon class="st1" points="1148.8,1 1119.2,30.6 1120.8,30.6 1150.5,1 					"/>
					<polygon class="st1" points="1133.5,1 1103.8,30.6 1105.5,30.6 1135.2,1 					"/>
					<polygon class="st1" points="1118.1,1 1088.5,30.6 1090.2,30.6 1119.8,1 					"/>
					<polygon class="st1" points="1102.8,1 1073.1,30.6 1074.8,30.6 1104.5,1 					"/>
					<polygon class="st1" points="1087.4,1 1057.8,30.6 1059.5,30.6 1089.1,1 					"/>
				</g>
				<g>
					<polygon class="st1" points="1505.3,1 1475.6,30.6 1477.3,30.6 1506.9,1 					"/>
					<polygon class="st1" points="1489.9,1 1460.3,30.6 1462,30.6 1491.6,1 					"/>
					<polygon class="st1" points="1474.6,1 1444.9,30.6 1446.6,30.6 1476.3,1 					"/>
					<polygon class="st1" points="1459.2,1 1429.6,30.6 1431.3,30.6 1460.9,1 					"/>
					<polygon class="st1" points="1443.9,1 1414.2,30.6 1415.9,30.6 1445.6,1 					"/>
					<polygon class="st1" points="1428.5,1 1398.9,30.6 1400.6,30.6 1430.2,1 					"/>
					<polygon class="st1" points="1413.2,1 1383.5,30.6 1385.2,30.6 1414.9,1 					"/>
					<polygon class="st1" points="1397.8,1 1368.2,30.6 1369.9,30.6 1399.5,1 					"/>
					<polygon class="st1" points="1382.5,1 1352.8,30.6 1354.5,30.6 1384.2,1 					"/>
					<polygon class="st1" points="1367.2,1 1337.5,30.6 1339.2,30.6 1368.8,1 					"/>
					<polygon class="st1" points="1351.8,1 1322.2,30.6 1323.8,30.6 1353.5,1 					"/>
					<polygon class="st1" points="1336.5,1 1306.8,30.6 1308.5,30.6 1338.2,1 					"/>
					<polygon class="st1" points="1321.1,1 1291.5,30.6 1293.2,30.6 1322.8,1 					"/>
					<polygon class="st1" points="1305.8,1 1276.1,30.6 1277.8,30.6 1307.5,1 					"/>
				</g>
				<g>
					<polygon class="st1" points="1073.8,1 1044.2,30.6 1045.9,30.6 1075.5,1 					"/>
					<polygon class="st1" points="1058.5,1 1028.8,30.6 1030.5,30.6 1060.2,1 					"/>
					<polygon class="st1" points="1043.1,1 1013.5,30.6 1015.2,30.6 1044.8,1 					"/>
					<polygon class="st1" points="1027.8,1 998.1,30.6 999.8,30.6 1029.5,1 					"/>
					<polygon class="st1" points="1012.4,1 982.8,30.6 984.5,30.6 1014.1,1 					"/>
					<polygon class="st1" points="997.1,1 967.5,30.6 969.1,30.6 998.8,1 					"/>
					<polygon class="st1" points="981.8,1 952.1,30.6 953.8,30.6 983.5,1 					"/>
					<polygon class="st1" points="966.4,1 936.8,30.6 938.5,30.6 968.1,1 					"/>
					<polygon class="st1" points="951.1,1 921.4,30.6 923.1,30.6 952.8,1 					"/>
					<polygon class="st1" points="935.7,1 906.1,30.6 907.8,30.6 937.4,1 					"/>
					<polygon class="st1" points="920.4,1 890.7,30.6 892.4,30.6 922.1,1 					"/>
					<polygon class="st1" points="905,1 875.4,30.6 877.1,30.6 906.7,1 					"/>
					<polygon class="st1" points="889.7,1 860,30.6 861.7,30.6 891.4,1 					"/>
					<polygon class="st1" points="874.3,1 844.7,30.6 846.4,30.6 876,1 					"/>
				</g>
			</g>
			<g>
				<g>
					<polygon class="st1" points="426.9,1 397.2,30.6 398.9,30.6 428.6,1 					"/>
					<polygon class="st1" points="411.5,1 381.9,30.6 383.6,30.6 413.2,1 					"/>
					<polygon class="st1" points="396.2,1 366.5,30.6 368.2,30.6 397.9,1 					"/>
					<polygon class="st1" points="380.8,1 351.2,30.6 352.9,30.6 382.5,1 					"/>
					<polygon class="st1" points="365.5,1 335.8,30.6 337.5,30.6 367.2,1 					"/>
					<polygon class="st1" points="350.1,1 320.5,30.6 322.2,30.6 351.8,1 					"/>
					<polygon class="st1" points="334.8,1 305.1,30.6 306.8,30.6 336.5,1 					"/>
					<polygon class="st1" points="319.5,1 289.8,30.6 291.5,30.6 321.1,1 					"/>
					<polygon class="st1" points="304.1,1 274.5,30.6 276.1,30.6 305.8,1 					"/>
					<polygon class="st1" points="288.8,1 259.1,30.6 260.8,30.6 290.5,1 					"/>
					<polygon class="st1" points="273.4,1 243.8,30.6 245.5,30.6 275.1,1 					"/>
					<polygon class="st1" points="258.1,1 228.4,30.6 230.1,30.6 259.8,1 					"/>
					<polygon class="st1" points="242.7,1 213.1,30.6 214.8,30.6 244.4,1 					"/>
					<polygon class="st1" points="227.4,1 197.7,30.6 199.4,30.6 229.1,1 					"/>
				</g>
				<g>
					<polygon class="st1" points="213.8,1 184.1,30.6 185.8,30.6 215.5,1 					"/>
					<polygon class="st1" points="198.5,1 168.8,30.6 170.5,30.6 200.1,1 					"/>
					<polygon class="st1" points="183.1,1 153.5,30.6 155.2,30.6 184.8,1 					"/>
					<polygon class="st1" points="167.8,1 138.1,30.6 139.8,30.6 169.5,1 					"/>
					<polygon class="st1" points="152.4,1 122.8,30.6 124.5,30.6 154.1,1 					"/>
					<polygon class="st1" points="137.1,1 107.4,30.6 109.1,30.6 138.8,1 					"/>
					<polygon class="st1" points="121.7,1 92.1,30.6 93.8,30.6 123.4,1 					"/>
					<polygon class="st1" points="106.4,1 76.7,30.6 78.4,30.6 108.1,1 					"/>
					<polygon class="st1" points="91,1 61.4,30.6 63.1,30.6 92.7,1 					"/>
					<polygon class="st1" points="75.7,1 46,30.6 47.7,30.6 77.4,1 					"/>
					<polygon class="st1" points="60.3,1 30.7,30.6 32.4,30.6 62,1 					"/>
					<polygon class="st1" points="45,1 15.3,30.6 17,30.6 46.7,1 					"/>
					<polygon class="st1" points="29.6,1 0,30.6 1.7,30.6 31.4,1 					"/>
					<polygon class="st1" points="14.3,1 0,15.3 -0.1,17.1 16,1 					"/>
				</g>
			</g>
			<g>
				<g>
					<polygon class="st1" points="857.7,1 828,30.6 829.7,30.6 859.4,1 					"/>
					<polygon class="st1" points="842.3,1 812.7,30.6 814.4,30.6 844,1 					"/>
					<polygon class="st1" points="827,1 797.3,30.6 799,30.6 828.7,1 					"/>
					<polygon class="st1" points="811.6,1 782,30.6 783.7,30.6 813.3,1 					"/>
					<polygon class="st1" points="796.3,1 766.6,30.6 768.3,30.6 798,1 					"/>
					<polygon class="st1" points="781,1 751.3,30.6 753,30.6 782.6,1 					"/>
					<polygon class="st1" points="765.6,1 736,30.6 737.6,30.6 767.3,1 					"/>
					<polygon class="st1" points="750.3,1 720.6,30.6 722.3,30.6 752,1 					"/>
					<polygon class="st1" points="734.9,1 705.3,30.6 707,30.6 736.6,1 					"/>
					<polygon class="st1" points="719.6,1 689.9,30.6 691.6,30.6 721.3,1 					"/>
					<polygon class="st1" points="704.2,1 674.6,30.6 676.3,30.6 705.9,1 					"/>
					<polygon class="st1" points="688.9,1 659.2,30.6 660.9,30.6 690.6,1 					"/>
					<polygon class="st1" points="673.5,1 643.9,30.6 645.6,30.6 675.2,1 					"/>
					<polygon class="st1" points="658.2,1 628.5,30.6 630.2,30.6 659.9,1 					"/>
				</g>
				<g>
					<polygon class="st1" points="644.6,1 615,30.6 616.6,30.6 646.3,1 					"/>
					<polygon class="st1" points="629.2,1 599.6,30.6 601.3,30.6 631,1 					"/>
					<polygon class="st1" points="613.9,1 584.2,30.6 586,30.6 615.6,1 					"/>
					<polygon class="st1" points="598.6,1 568.9,30.6 570.6,30.6 600.2,1 					"/>
					<polygon class="st1" points="583.2,1 553.6,30.6 555.3,30.6 584.9,1 					"/>
					<polygon class="st1" points="567.9,1 538.2,30.6 539.9,30.6 569.6,1 					"/>
					<polygon class="st1" points="552.5,1 522.9,30.6 524.6,30.6 554.2,1 					"/>
					<polygon class="st1" points="537.2,1 507.5,30.6 509.2,30.6 538.9,1 					"/>
					<polygon class="st1" points="521.8,1 492.2,30.6 493.9,30.6 523.5,1 					"/>
					<polygon class="st1" points="506.5,1 476.8,30.6 478.5,30.6 508.2,1 					"/>
					<polygon class="st1" points="491.1,1 461.5,30.6 463.2,30.6 492.8,1 					"/>
					<polygon class="st1" points="475.8,1 446.1,30.6 447.8,30.6 477.5,1 					"/>
					<polygon class="st1" points="460.4,1 430.8,30.6 432.5,30.6 462.1,1 					"/>
					<polygon class="st1" points="445.1,1 415.5,30.6 417.1,30.6 446.8,1 					"/>
				</g>
			</g>
		</g>
	</g>
</g>
</svg>
