<svg xmlns="http://www.w3.org/2000/svg" viewBox="0 0 36.19 241.69"><defs><style>.cls-1{fill:#f2f2f2;}</style></defs><g id="Capa_2" data-name="Capa 2"><g id="Capa_6" data-name="Capa 6"><path class="cls-1" d="M35.1,241.69A1.09,1.09,0,1,0,34,240.6,1.09,1.09,0,0,0,35.1,241.69Z"/><path class="cls-1" d="M35.1,221.73A1.09,1.09,0,1,0,34,220.64,1.09,1.09,0,0,0,35.1,221.73Z"/><path class="cls-1" d="M35.1,201.77A1.09,1.09,0,1,0,34,200.68,1.09,1.09,0,0,0,35.1,201.77Z"/><path class="cls-1" d="M35.1,181.81A1.09,1.09,0,1,0,34,180.72,1.09,1.09,0,0,0,35.1,181.81Z"/><path class="cls-1" d="M35.1,161.85A1.09,1.09,0,1,0,34,160.76,1.09,1.09,0,0,0,35.1,161.85Z"/><path class="cls-1" d="M35.1,141.89A1.09,1.09,0,1,0,34,140.8,1.09,1.09,0,0,0,35.1,141.89Z"/><path class="cls-1" d="M35.1,121.93A1.09,1.09,0,1,0,34,120.84,1.09,1.09,0,0,0,35.1,121.93Z"/><path class="cls-1" d="M35.1,102A1.09,1.09,0,1,0,34,100.88,1.09,1.09,0,0,0,35.1,102Z"/><path class="cls-1" d="M35.1,82A1.09,1.09,0,1,0,34,80.92,1.09,1.09,0,0,0,35.1,82Z"/><path class="cls-1" d="M35.1,62.05A1.09,1.09,0,1,0,34,61,1.09,1.09,0,0,0,35.1,62.05Z"/><path class="cls-1" d="M35.1,42.09A1.09,1.09,0,1,0,34,41,1.08,1.08,0,0,0,35.1,42.09Z"/><path class="cls-1" d="M35.1,22.13A1.09,1.09,0,1,0,34,21.05,1.08,1.08,0,0,0,35.1,22.13Z"/><path class="cls-1" d="M35.1,2.17A1.09,1.09,0,1,0,34,1.09,1.08,1.08,0,0,0,35.1,2.17Z"/><circle class="cls-1" cx="18.09" cy="240.6" r="1.09"/><path class="cls-1" d="M18.09,221.73a1.09,1.09,0,1,0,0-2.17,1.09,1.09,0,0,0,0,2.17Z"/><path class="cls-1" d="M18.09,201.77a1.09,1.09,0,1,0,0-2.17,1.09,1.09,0,0,0,0,2.17Z"/><path class="cls-1" d="M18.09,181.81a1.09,1.09,0,1,0,0-2.17,1.09,1.09,0,0,0,0,2.17Z"/><circle class="cls-1" cx="18.09" cy="160.76" r="1.09"/><circle class="cls-1" cx="18.09" cy="140.8" r="1.09"/><circle class="cls-1" cx="18.09" cy="120.84" r="1.09"/><circle class="cls-1" cx="18.09" cy="100.88" r="1.09"/><circle class="cls-1" cx="18.09" cy="80.92" r="1.09"/><circle class="cls-1" cx="18.09" cy="60.97" r="1.09"/><circle class="cls-1" cx="18.09" cy="41.01" r="1.09"/><path class="cls-1" d="M18.09,22.13A1.09,1.09,0,1,0,17,21.05,1.08,1.08,0,0,0,18.09,22.13Z"/><path class="cls-1" d="M18.09,2.17A1.09,1.09,0,1,0,17,1.09,1.08,1.08,0,0,0,18.09,2.17Z"/><path class="cls-1" d="M1.09,241.69A1.09,1.09,0,1,0,0,240.6,1.08,1.08,0,0,0,1.09,241.69Z"/><path class="cls-1" d="M1.09,221.73A1.09,1.09,0,1,0,0,220.64,1.08,1.08,0,0,0,1.09,221.73Z"/><path class="cls-1" d="M1.09,201.77A1.09,1.09,0,1,0,0,200.68,1.08,1.08,0,0,0,1.09,201.77Z"/><path class="cls-1" d="M1.09,181.81A1.09,1.09,0,1,0,0,180.72,1.08,1.08,0,0,0,1.09,181.81Z"/><path class="cls-1" d="M1.09,161.85A1.09,1.09,0,1,0,0,160.76,1.08,1.08,0,0,0,1.09,161.85Z"/><path class="cls-1" d="M1.09,141.89A1.09,1.09,0,1,0,0,140.8,1.08,1.08,0,0,0,1.09,141.89Z"/><path class="cls-1" d="M1.09,121.93A1.09,1.09,0,1,0,0,120.84,1.08,1.08,0,0,0,1.09,121.93Z"/><path class="cls-1" d="M1.09,102A1.09,1.09,0,1,0,0,100.88,1.08,1.08,0,0,0,1.09,102Z"/><path class="cls-1" d="M1.09,82A1.09,1.09,0,1,0,0,80.92,1.08,1.08,0,0,0,1.09,82Z"/><path class="cls-1" d="M1.09,62.05A1.09,1.09,0,1,0,0,61,1.08,1.08,0,0,0,1.09,62.05Z"/><path class="cls-1" d="M1.09,42.09a1.09,1.09,0,0,0,0-2.17,1.09,1.09,0,1,0,0,2.17Z"/><path class="cls-1" d="M1.09,22.13a1.09,1.09,0,0,0,0-2.17,1.09,1.09,0,1,0,0,2.17Z"/><path class="cls-1" d="M1.09,2.17A1.09,1.09,0,0,0,1.09,0a1.09,1.09,0,1,0,0,2.17Z"/></g></g></svg>